G04 #@! TF.GenerationSoftware,KiCad,Pcbnew,5.1.5+dfsg1-2build2*
G04 #@! TF.CreationDate,2023-07-02T11:19:25+01:00*
G04 #@! TF.ProjectId,hd36106_replacement,68643336-3130-4365-9f72-65706c616365,rev?*
G04 #@! TF.SameCoordinates,Original*
G04 #@! TF.FileFunction,Copper,L1,Top*
G04 #@! TF.FilePolarity,Positive*
%FSLAX46Y46*%
G04 Gerber Fmt 4.6, Leading zero omitted, Abs format (unit mm)*
G04 Created by KiCad (PCBNEW 5.1.5+dfsg1-2build2) date 2023-07-02 11:19:25*
%MOMM*%
%LPD*%
G04 APERTURE LIST*
%ADD10C,1.524000*%
%ADD11R,2.000000X2.000000*%
%ADD12R,1.200000X0.900000*%
%ADD13R,1.500000X0.600000*%
%ADD14C,0.600000*%
%ADD15C,0.200000*%
%ADD16C,0.254000*%
G04 APERTURE END LIST*
D10*
X119330000Y-88000000D03*
X119330000Y-90540000D03*
X119330000Y-93080000D03*
X119330000Y-95620000D03*
X119330000Y-98160000D03*
X119330000Y-100700000D03*
X119330000Y-103240000D03*
X119330000Y-105780000D03*
X134570000Y-105780000D03*
X134570000Y-103240000D03*
X134570000Y-100700000D03*
X134570000Y-98160000D03*
X134570000Y-95620000D03*
X134570000Y-93080000D03*
X134570000Y-90540000D03*
X134570000Y-88000000D03*
D11*
X136525000Y-84074000D03*
D10*
X121000000Y-107070000D03*
X121000000Y-104530000D03*
X121000000Y-101990000D03*
X121000000Y-99450000D03*
X121000000Y-96910000D03*
X121000000Y-94370000D03*
X121000000Y-91830000D03*
X121000000Y-89290000D03*
X121000000Y-86750000D03*
X123540000Y-84210000D03*
X126080000Y-84210000D03*
X128620000Y-84210000D03*
X131160000Y-84210000D03*
X133700000Y-84210000D03*
X136240000Y-86750000D03*
X136240000Y-89290000D03*
X136240000Y-91830000D03*
X136240000Y-94370000D03*
X136240000Y-96910000D03*
X136240000Y-99450000D03*
X136240000Y-101990000D03*
X136240000Y-104530000D03*
X136240000Y-107070000D03*
D12*
X132715000Y-103633000D03*
X132715000Y-106933000D03*
X130302000Y-106933000D03*
X130302000Y-103633000D03*
X127889000Y-103633000D03*
X127889000Y-106933000D03*
D13*
X132550000Y-88085000D03*
X132550000Y-89355000D03*
X132550000Y-90625000D03*
X132550000Y-91895000D03*
X132550000Y-93165000D03*
X132550000Y-94435000D03*
X132550000Y-95705000D03*
X132550000Y-96975000D03*
X132550000Y-98245000D03*
X132550000Y-99515000D03*
X123050000Y-99515000D03*
X123050000Y-98245000D03*
X123050000Y-96975000D03*
X123050000Y-95705000D03*
X123050000Y-88085000D03*
X123050000Y-89355000D03*
X123050000Y-90625000D03*
X123050000Y-91895000D03*
X123050000Y-93165000D03*
X123050000Y-94435000D03*
D14*
X122682000Y-106172000D03*
X131402002Y-107061000D03*
X125452500Y-104671500D03*
X125730000Y-95377000D03*
X124333000Y-89789000D03*
X121666000Y-93091000D03*
X121666000Y-95631000D03*
X121666000Y-90551000D03*
X119253000Y-86233000D03*
X133985000Y-91821000D03*
X122428000Y-100017500D03*
X133858000Y-94361000D03*
X134112000Y-99441000D03*
X133985000Y-96901000D03*
X124402001Y-90678000D03*
X124714000Y-92075000D03*
X124714000Y-96901000D03*
X129159000Y-101346000D03*
X129032000Y-107569000D03*
X123825000Y-102846500D03*
X121793000Y-98171000D03*
X121799998Y-87930121D03*
X126873000Y-88512500D03*
X125183818Y-101384182D03*
X124968000Y-88517100D03*
X126944152Y-106084010D03*
X127531500Y-102682998D03*
X127889000Y-106299000D03*
X131669041Y-105939393D03*
X132588000Y-86233000D03*
X128016000Y-85598000D03*
X128778000Y-90170000D03*
X128778000Y-86687500D03*
X125730000Y-90043000D03*
X124968000Y-86692100D03*
X128143000Y-97282000D03*
X128270000Y-91451500D03*
X133970000Y-86819127D03*
X127041270Y-92691746D03*
X127158968Y-101058225D03*
X124206000Y-98298000D03*
D15*
X133911000Y-91895000D02*
X133985000Y-91821000D01*
X132550000Y-91895000D02*
X133911000Y-91895000D01*
X121666000Y-96055264D02*
X121666000Y-95631000D01*
X122585736Y-96975000D02*
X121666000Y-96055264D01*
X123050000Y-96975000D02*
X122585736Y-96975000D01*
X122930500Y-99515000D02*
X122428000Y-100017500D01*
X123050000Y-99515000D02*
X122930500Y-99515000D01*
X122880001Y-95104999D02*
X121767737Y-95104999D01*
X123050000Y-94935000D02*
X122880001Y-95104999D01*
X121666000Y-95206736D02*
X121666000Y-95631000D01*
X121767737Y-95104999D02*
X121666000Y-95206736D01*
X123050000Y-94435000D02*
X123050000Y-94935000D01*
X133784000Y-94435000D02*
X133858000Y-94361000D01*
X132550000Y-94435000D02*
X133784000Y-94435000D01*
X133911000Y-96975000D02*
X133985000Y-96901000D01*
X132550000Y-96975000D02*
X133911000Y-96975000D01*
X124402001Y-91492999D02*
X124402001Y-90678000D01*
X124000000Y-91895000D02*
X124402001Y-91492999D01*
X123050000Y-91895000D02*
X124000000Y-91895000D01*
X123050000Y-88085000D02*
X123050000Y-89355000D01*
X124333000Y-89364736D02*
X124333000Y-89789000D01*
X124333000Y-88418000D02*
X124333000Y-89364736D01*
X124000000Y-88085000D02*
X124333000Y-88418000D01*
X123050000Y-88085000D02*
X124000000Y-88085000D01*
X124714000Y-92075000D02*
X124714000Y-96901000D01*
X129159000Y-107442000D02*
X129032000Y-107569000D01*
X129159000Y-101346000D02*
X129159000Y-107442000D01*
X121856500Y-102846500D02*
X121000000Y-101990000D01*
X123825000Y-102846500D02*
X121856500Y-102846500D01*
X125183818Y-97319184D02*
X125314001Y-97189001D01*
X125183818Y-101384182D02*
X125183818Y-97319184D01*
X125314001Y-96612999D02*
X125114010Y-96413008D01*
X125314001Y-97189001D02*
X125314001Y-96612999D01*
X125114010Y-96413008D02*
X125114010Y-92562992D01*
X125314001Y-91786999D02*
X125002001Y-91474999D01*
X125314001Y-92363001D02*
X125314001Y-91786999D01*
X125114010Y-92562992D02*
X125314001Y-92363001D01*
X125002001Y-88551101D02*
X124968000Y-88517100D01*
X125002001Y-91474999D02*
X125002001Y-88551101D01*
X127249000Y-102682998D02*
X127531500Y-102682998D01*
X126944152Y-102987846D02*
X127249000Y-102682998D01*
X126944152Y-106084010D02*
X126944152Y-102987846D01*
X131160000Y-84210000D02*
X131160000Y-99156000D01*
X131519000Y-99515000D02*
X132550000Y-99515000D01*
X131160000Y-99156000D02*
X131519000Y-99515000D01*
X127889000Y-106933000D02*
X127889000Y-106299000D01*
X131295607Y-105939393D02*
X130302000Y-106933000D01*
X131669041Y-105939393D02*
X131295607Y-105939393D01*
X130302000Y-103633000D02*
X132715000Y-103633000D01*
X136103000Y-106933000D02*
X136240000Y-107070000D01*
X132715000Y-106933000D02*
X136103000Y-106933000D01*
X136510000Y-84074000D02*
X136525000Y-84074000D01*
X135407762Y-84074000D02*
X136525000Y-84074000D01*
X133248762Y-86233000D02*
X135407762Y-84074000D01*
X132588000Y-86233000D02*
X133248762Y-86233000D01*
X127669999Y-85944001D02*
X128016000Y-85598000D01*
X127542999Y-96993999D02*
X127669999Y-96866999D01*
X127542999Y-97570001D02*
X127542999Y-96993999D01*
X127669999Y-96866999D02*
X127669999Y-85944001D01*
X128131501Y-98158503D02*
X127542999Y-97570001D01*
X128131501Y-103390499D02*
X128131501Y-98158503D01*
X127889000Y-103633000D02*
X128131501Y-103390499D01*
X134485000Y-88085000D02*
X134570000Y-88000000D01*
X132550000Y-88085000D02*
X134485000Y-88085000D01*
X128143000Y-91578500D02*
X128270000Y-91451500D01*
X128143000Y-97282000D02*
X128143000Y-91578500D01*
X136170873Y-86819127D02*
X136240000Y-86750000D01*
X133970000Y-86819127D02*
X136170873Y-86819127D01*
X127041270Y-100940527D02*
X127158968Y-101058225D01*
X127041270Y-92691746D02*
X127041270Y-100940527D01*
X123103000Y-98298000D02*
X123050000Y-98245000D01*
X124206000Y-98298000D02*
X123103000Y-98298000D01*
D16*
G36*
X122301995Y-83548273D02*
G01*
X122196686Y-83802510D01*
X122143000Y-84072408D01*
X122143000Y-84347592D01*
X122196686Y-84617490D01*
X122301995Y-84871727D01*
X122454880Y-85100535D01*
X122649465Y-85295120D01*
X122878273Y-85448005D01*
X123132510Y-85553314D01*
X123402408Y-85607000D01*
X123677592Y-85607000D01*
X123947490Y-85553314D01*
X124201727Y-85448005D01*
X124430535Y-85295120D01*
X124625120Y-85100535D01*
X124778005Y-84871727D01*
X124810000Y-84794485D01*
X124841995Y-84871727D01*
X124994880Y-85100535D01*
X125189465Y-85295120D01*
X125418273Y-85448005D01*
X125672510Y-85553314D01*
X125942408Y-85607000D01*
X126217592Y-85607000D01*
X126487490Y-85553314D01*
X126741727Y-85448005D01*
X126970535Y-85295120D01*
X127165120Y-85100535D01*
X127318005Y-84871727D01*
X127350000Y-84794485D01*
X127381995Y-84871727D01*
X127397211Y-84894499D01*
X127289738Y-85001972D01*
X127187414Y-85155111D01*
X127116932Y-85325271D01*
X127081735Y-85502217D01*
X127055913Y-85533681D01*
X127018040Y-85604537D01*
X126987663Y-85661368D01*
X126945634Y-85799916D01*
X126931443Y-85944001D01*
X126935000Y-85980116D01*
X126935000Y-87577500D01*
X126780911Y-87577500D01*
X126600271Y-87613432D01*
X126430111Y-87683914D01*
X126276972Y-87786238D01*
X126146738Y-87916472D01*
X126044414Y-88069611D01*
X125973932Y-88239771D01*
X125938000Y-88420411D01*
X125938000Y-88604589D01*
X125973932Y-88785229D01*
X126044414Y-88955389D01*
X126146738Y-89108528D01*
X126276972Y-89238762D01*
X126430111Y-89341086D01*
X126600271Y-89411568D01*
X126780911Y-89447500D01*
X126935000Y-89447500D01*
X126934999Y-91759567D01*
X126768541Y-91792678D01*
X126598381Y-91863160D01*
X126445242Y-91965484D01*
X126315008Y-92095718D01*
X126212684Y-92248857D01*
X126142202Y-92419017D01*
X126106270Y-92599657D01*
X126106270Y-92783835D01*
X126142202Y-92964475D01*
X126212684Y-93134635D01*
X126306270Y-93274697D01*
X126306271Y-100673546D01*
X126259900Y-100785496D01*
X126223968Y-100966136D01*
X126223968Y-101150314D01*
X126259900Y-101330954D01*
X126330382Y-101501114D01*
X126432706Y-101654253D01*
X126562940Y-101784487D01*
X126716079Y-101886811D01*
X126886239Y-101957293D01*
X126926839Y-101965369D01*
X126805238Y-102086970D01*
X126791352Y-102107753D01*
X126726762Y-102160760D01*
X126703741Y-102188811D01*
X126449960Y-102442592D01*
X126421915Y-102465608D01*
X126330066Y-102577526D01*
X126282704Y-102666135D01*
X126261816Y-102705213D01*
X126219787Y-102843761D01*
X126205596Y-102987846D01*
X126209153Y-103023961D01*
X126209152Y-105501059D01*
X126115566Y-105641121D01*
X126045084Y-105811281D01*
X126009152Y-105991921D01*
X126009152Y-106176099D01*
X126045084Y-106356739D01*
X126115566Y-106526899D01*
X126217890Y-106680038D01*
X126348124Y-106810272D01*
X126501263Y-106912596D01*
X126650928Y-106974589D01*
X126650928Y-107383000D01*
X126663188Y-107507482D01*
X126674266Y-107544000D01*
X122315765Y-107544000D01*
X122343314Y-107477490D01*
X122397000Y-107207592D01*
X122397000Y-107065985D01*
X122409271Y-107071068D01*
X122589911Y-107107000D01*
X122774089Y-107107000D01*
X122954729Y-107071068D01*
X123124889Y-107000586D01*
X123278028Y-106898262D01*
X123408262Y-106768028D01*
X123510586Y-106614889D01*
X123581068Y-106444729D01*
X123617000Y-106264089D01*
X123617000Y-106079911D01*
X123581068Y-105899271D01*
X123510586Y-105729111D01*
X123408262Y-105575972D01*
X123278028Y-105445738D01*
X123124889Y-105343414D01*
X122954729Y-105272932D01*
X122774089Y-105237000D01*
X122589911Y-105237000D01*
X122409271Y-105272932D01*
X122239111Y-105343414D01*
X122085972Y-105445738D01*
X121955738Y-105575972D01*
X121853414Y-105729111D01*
X121782932Y-105899271D01*
X121780525Y-105911373D01*
X121661727Y-105831995D01*
X121584485Y-105800000D01*
X121661727Y-105768005D01*
X121890535Y-105615120D01*
X122085120Y-105420535D01*
X122238005Y-105191727D01*
X122343314Y-104937490D01*
X122397000Y-104667592D01*
X122397000Y-104392408D01*
X122343314Y-104122510D01*
X122238005Y-103868273D01*
X122085120Y-103639465D01*
X122027155Y-103581500D01*
X123242049Y-103581500D01*
X123382111Y-103675086D01*
X123552271Y-103745568D01*
X123732911Y-103781500D01*
X123917089Y-103781500D01*
X124097729Y-103745568D01*
X124267889Y-103675086D01*
X124421028Y-103572762D01*
X124551262Y-103442528D01*
X124653586Y-103289389D01*
X124724068Y-103119229D01*
X124760000Y-102938589D01*
X124760000Y-102754411D01*
X124724068Y-102573771D01*
X124653586Y-102403611D01*
X124551262Y-102250472D01*
X124421028Y-102120238D01*
X124267889Y-102017914D01*
X124097729Y-101947432D01*
X123917089Y-101911500D01*
X123732911Y-101911500D01*
X123552271Y-101947432D01*
X123382111Y-102017914D01*
X123242049Y-102111500D01*
X122397000Y-102111500D01*
X122397000Y-101852408D01*
X122343314Y-101582510D01*
X122238005Y-101328273D01*
X122085120Y-101099465D01*
X121890535Y-100904880D01*
X121661727Y-100751995D01*
X121584485Y-100720000D01*
X121661727Y-100688005D01*
X121890535Y-100535120D01*
X122033229Y-100392426D01*
X122055820Y-100404502D01*
X122175518Y-100440812D01*
X122300000Y-100453072D01*
X122764250Y-100450000D01*
X122923000Y-100291250D01*
X122923000Y-99642000D01*
X123177000Y-99642000D01*
X123177000Y-100291250D01*
X123335750Y-100450000D01*
X123800000Y-100453072D01*
X123924482Y-100440812D01*
X124044180Y-100404502D01*
X124154494Y-100345537D01*
X124251185Y-100266185D01*
X124330537Y-100169494D01*
X124389502Y-100059180D01*
X124425812Y-99939482D01*
X124438072Y-99815000D01*
X124435000Y-99800750D01*
X124276250Y-99642000D01*
X123177000Y-99642000D01*
X122923000Y-99642000D01*
X122903000Y-99642000D01*
X122903000Y-99388000D01*
X122923000Y-99388000D01*
X122923000Y-99368000D01*
X123177000Y-99368000D01*
X123177000Y-99388000D01*
X124276250Y-99388000D01*
X124435000Y-99229250D01*
X124438072Y-99215000D01*
X124437121Y-99205344D01*
X124448819Y-99203018D01*
X124448818Y-100801231D01*
X124355232Y-100941293D01*
X124284750Y-101111453D01*
X124248818Y-101292093D01*
X124248818Y-101476271D01*
X124284750Y-101656911D01*
X124355232Y-101827071D01*
X124457556Y-101980210D01*
X124587790Y-102110444D01*
X124740929Y-102212768D01*
X124911089Y-102283250D01*
X125091729Y-102319182D01*
X125275907Y-102319182D01*
X125456547Y-102283250D01*
X125626707Y-102212768D01*
X125779846Y-102110444D01*
X125910080Y-101980210D01*
X126012404Y-101827071D01*
X126082886Y-101656911D01*
X126118818Y-101476271D01*
X126118818Y-101292093D01*
X126082886Y-101111453D01*
X126012404Y-100941293D01*
X125918818Y-100801231D01*
X125918818Y-97610616D01*
X125928088Y-97599321D01*
X125996338Y-97471634D01*
X126038366Y-97333086D01*
X126049001Y-97225106D01*
X126049001Y-97225105D01*
X126052557Y-97189001D01*
X126049001Y-97152896D01*
X126049001Y-96649104D01*
X126052557Y-96612999D01*
X126038366Y-96468913D01*
X126021407Y-96413008D01*
X125996338Y-96330366D01*
X125928088Y-96202679D01*
X125849010Y-96106322D01*
X125849010Y-92869676D01*
X125928088Y-92773321D01*
X125996338Y-92645634D01*
X126028584Y-92539333D01*
X126038366Y-92507087D01*
X126052557Y-92363001D01*
X126049001Y-92326896D01*
X126049001Y-91823104D01*
X126052557Y-91786999D01*
X126038366Y-91642914D01*
X125996338Y-91504365D01*
X125958948Y-91434415D01*
X125928088Y-91376679D01*
X125836239Y-91264761D01*
X125808188Y-91241740D01*
X125737001Y-91170553D01*
X125737001Y-90978000D01*
X125822089Y-90978000D01*
X126002729Y-90942068D01*
X126172889Y-90871586D01*
X126326028Y-90769262D01*
X126456262Y-90639028D01*
X126558586Y-90485889D01*
X126629068Y-90315729D01*
X126665000Y-90135089D01*
X126665000Y-89950911D01*
X126629068Y-89770271D01*
X126558586Y-89600111D01*
X126456262Y-89446972D01*
X126326028Y-89316738D01*
X126172889Y-89214414D01*
X126002729Y-89143932D01*
X125822089Y-89108000D01*
X125737001Y-89108000D01*
X125737001Y-89049164D01*
X125796586Y-88959989D01*
X125867068Y-88789829D01*
X125903000Y-88609189D01*
X125903000Y-88425011D01*
X125867068Y-88244371D01*
X125796586Y-88074211D01*
X125694262Y-87921072D01*
X125564028Y-87790838D01*
X125410889Y-87688514D01*
X125240729Y-87618032D01*
X125173203Y-87604600D01*
X125240729Y-87591168D01*
X125410889Y-87520686D01*
X125564028Y-87418362D01*
X125694262Y-87288128D01*
X125796586Y-87134989D01*
X125867068Y-86964829D01*
X125903000Y-86784189D01*
X125903000Y-86600011D01*
X125867068Y-86419371D01*
X125796586Y-86249211D01*
X125694262Y-86096072D01*
X125564028Y-85965838D01*
X125410889Y-85863514D01*
X125240729Y-85793032D01*
X125060089Y-85757100D01*
X124875911Y-85757100D01*
X124695271Y-85793032D01*
X124525111Y-85863514D01*
X124371972Y-85965838D01*
X124241738Y-86096072D01*
X124139414Y-86249211D01*
X124068932Y-86419371D01*
X124033000Y-86600011D01*
X124033000Y-86784189D01*
X124068932Y-86964829D01*
X124139414Y-87134989D01*
X124241738Y-87288128D01*
X124371972Y-87418362D01*
X124525111Y-87520686D01*
X124695271Y-87591168D01*
X124762797Y-87604600D01*
X124695271Y-87618032D01*
X124525111Y-87688514D01*
X124434530Y-87749038D01*
X124425812Y-87660518D01*
X124389502Y-87540820D01*
X124330537Y-87430506D01*
X124251185Y-87333815D01*
X124154494Y-87254463D01*
X124044180Y-87195498D01*
X123924482Y-87159188D01*
X123800000Y-87146928D01*
X123335750Y-87150000D01*
X123177000Y-87308750D01*
X123177000Y-87958000D01*
X123197000Y-87958000D01*
X123197000Y-88212000D01*
X123177000Y-88212000D01*
X123177000Y-89228000D01*
X123197000Y-89228000D01*
X123197000Y-89482000D01*
X123177000Y-89482000D01*
X123177000Y-89502000D01*
X122923000Y-89502000D01*
X122923000Y-89482000D01*
X122903000Y-89482000D01*
X122903000Y-89228000D01*
X122923000Y-89228000D01*
X122923000Y-88212000D01*
X122903000Y-88212000D01*
X122903000Y-87958000D01*
X122923000Y-87958000D01*
X122923000Y-87308750D01*
X122764250Y-87150000D01*
X122345355Y-87147228D01*
X122397000Y-86887592D01*
X122397000Y-86612408D01*
X122343314Y-86342510D01*
X122238005Y-86088273D01*
X122085120Y-85859465D01*
X121890535Y-85664880D01*
X121661727Y-85511995D01*
X121407490Y-85406686D01*
X121137592Y-85353000D01*
X120862408Y-85353000D01*
X120592510Y-85406686D01*
X120338273Y-85511995D01*
X120109465Y-85664880D01*
X119914880Y-85859465D01*
X119761995Y-86088273D01*
X119656686Y-86342510D01*
X119603000Y-86612408D01*
X119603000Y-86628378D01*
X119532865Y-86610977D01*
X119257983Y-86598090D01*
X119024000Y-86633334D01*
X119024000Y-83464000D01*
X122358305Y-83464000D01*
X122301995Y-83548273D01*
G37*
X122301995Y-83548273D02*
X122196686Y-83802510D01*
X122143000Y-84072408D01*
X122143000Y-84347592D01*
X122196686Y-84617490D01*
X122301995Y-84871727D01*
X122454880Y-85100535D01*
X122649465Y-85295120D01*
X122878273Y-85448005D01*
X123132510Y-85553314D01*
X123402408Y-85607000D01*
X123677592Y-85607000D01*
X123947490Y-85553314D01*
X124201727Y-85448005D01*
X124430535Y-85295120D01*
X124625120Y-85100535D01*
X124778005Y-84871727D01*
X124810000Y-84794485D01*
X124841995Y-84871727D01*
X124994880Y-85100535D01*
X125189465Y-85295120D01*
X125418273Y-85448005D01*
X125672510Y-85553314D01*
X125942408Y-85607000D01*
X126217592Y-85607000D01*
X126487490Y-85553314D01*
X126741727Y-85448005D01*
X126970535Y-85295120D01*
X127165120Y-85100535D01*
X127318005Y-84871727D01*
X127350000Y-84794485D01*
X127381995Y-84871727D01*
X127397211Y-84894499D01*
X127289738Y-85001972D01*
X127187414Y-85155111D01*
X127116932Y-85325271D01*
X127081735Y-85502217D01*
X127055913Y-85533681D01*
X127018040Y-85604537D01*
X126987663Y-85661368D01*
X126945634Y-85799916D01*
X126931443Y-85944001D01*
X126935000Y-85980116D01*
X126935000Y-87577500D01*
X126780911Y-87577500D01*
X126600271Y-87613432D01*
X126430111Y-87683914D01*
X126276972Y-87786238D01*
X126146738Y-87916472D01*
X126044414Y-88069611D01*
X125973932Y-88239771D01*
X125938000Y-88420411D01*
X125938000Y-88604589D01*
X125973932Y-88785229D01*
X126044414Y-88955389D01*
X126146738Y-89108528D01*
X126276972Y-89238762D01*
X126430111Y-89341086D01*
X126600271Y-89411568D01*
X126780911Y-89447500D01*
X126935000Y-89447500D01*
X126934999Y-91759567D01*
X126768541Y-91792678D01*
X126598381Y-91863160D01*
X126445242Y-91965484D01*
X126315008Y-92095718D01*
X126212684Y-92248857D01*
X126142202Y-92419017D01*
X126106270Y-92599657D01*
X126106270Y-92783835D01*
X126142202Y-92964475D01*
X126212684Y-93134635D01*
X126306270Y-93274697D01*
X126306271Y-100673546D01*
X126259900Y-100785496D01*
X126223968Y-100966136D01*
X126223968Y-101150314D01*
X126259900Y-101330954D01*
X126330382Y-101501114D01*
X126432706Y-101654253D01*
X126562940Y-101784487D01*
X126716079Y-101886811D01*
X126886239Y-101957293D01*
X126926839Y-101965369D01*
X126805238Y-102086970D01*
X126791352Y-102107753D01*
X126726762Y-102160760D01*
X126703741Y-102188811D01*
X126449960Y-102442592D01*
X126421915Y-102465608D01*
X126330066Y-102577526D01*
X126282704Y-102666135D01*
X126261816Y-102705213D01*
X126219787Y-102843761D01*
X126205596Y-102987846D01*
X126209153Y-103023961D01*
X126209152Y-105501059D01*
X126115566Y-105641121D01*
X126045084Y-105811281D01*
X126009152Y-105991921D01*
X126009152Y-106176099D01*
X126045084Y-106356739D01*
X126115566Y-106526899D01*
X126217890Y-106680038D01*
X126348124Y-106810272D01*
X126501263Y-106912596D01*
X126650928Y-106974589D01*
X126650928Y-107383000D01*
X126663188Y-107507482D01*
X126674266Y-107544000D01*
X122315765Y-107544000D01*
X122343314Y-107477490D01*
X122397000Y-107207592D01*
X122397000Y-107065985D01*
X122409271Y-107071068D01*
X122589911Y-107107000D01*
X122774089Y-107107000D01*
X122954729Y-107071068D01*
X123124889Y-107000586D01*
X123278028Y-106898262D01*
X123408262Y-106768028D01*
X123510586Y-106614889D01*
X123581068Y-106444729D01*
X123617000Y-106264089D01*
X123617000Y-106079911D01*
X123581068Y-105899271D01*
X123510586Y-105729111D01*
X123408262Y-105575972D01*
X123278028Y-105445738D01*
X123124889Y-105343414D01*
X122954729Y-105272932D01*
X122774089Y-105237000D01*
X122589911Y-105237000D01*
X122409271Y-105272932D01*
X122239111Y-105343414D01*
X122085972Y-105445738D01*
X121955738Y-105575972D01*
X121853414Y-105729111D01*
X121782932Y-105899271D01*
X121780525Y-105911373D01*
X121661727Y-105831995D01*
X121584485Y-105800000D01*
X121661727Y-105768005D01*
X121890535Y-105615120D01*
X122085120Y-105420535D01*
X122238005Y-105191727D01*
X122343314Y-104937490D01*
X122397000Y-104667592D01*
X122397000Y-104392408D01*
X122343314Y-104122510D01*
X122238005Y-103868273D01*
X122085120Y-103639465D01*
X122027155Y-103581500D01*
X123242049Y-103581500D01*
X123382111Y-103675086D01*
X123552271Y-103745568D01*
X123732911Y-103781500D01*
X123917089Y-103781500D01*
X124097729Y-103745568D01*
X124267889Y-103675086D01*
X124421028Y-103572762D01*
X124551262Y-103442528D01*
X124653586Y-103289389D01*
X124724068Y-103119229D01*
X124760000Y-102938589D01*
X124760000Y-102754411D01*
X124724068Y-102573771D01*
X124653586Y-102403611D01*
X124551262Y-102250472D01*
X124421028Y-102120238D01*
X124267889Y-102017914D01*
X124097729Y-101947432D01*
X123917089Y-101911500D01*
X123732911Y-101911500D01*
X123552271Y-101947432D01*
X123382111Y-102017914D01*
X123242049Y-102111500D01*
X122397000Y-102111500D01*
X122397000Y-101852408D01*
X122343314Y-101582510D01*
X122238005Y-101328273D01*
X122085120Y-101099465D01*
X121890535Y-100904880D01*
X121661727Y-100751995D01*
X121584485Y-100720000D01*
X121661727Y-100688005D01*
X121890535Y-100535120D01*
X122033229Y-100392426D01*
X122055820Y-100404502D01*
X122175518Y-100440812D01*
X122300000Y-100453072D01*
X122764250Y-100450000D01*
X122923000Y-100291250D01*
X122923000Y-99642000D01*
X123177000Y-99642000D01*
X123177000Y-100291250D01*
X123335750Y-100450000D01*
X123800000Y-100453072D01*
X123924482Y-100440812D01*
X124044180Y-100404502D01*
X124154494Y-100345537D01*
X124251185Y-100266185D01*
X124330537Y-100169494D01*
X124389502Y-100059180D01*
X124425812Y-99939482D01*
X124438072Y-99815000D01*
X124435000Y-99800750D01*
X124276250Y-99642000D01*
X123177000Y-99642000D01*
X122923000Y-99642000D01*
X122903000Y-99642000D01*
X122903000Y-99388000D01*
X122923000Y-99388000D01*
X122923000Y-99368000D01*
X123177000Y-99368000D01*
X123177000Y-99388000D01*
X124276250Y-99388000D01*
X124435000Y-99229250D01*
X124438072Y-99215000D01*
X124437121Y-99205344D01*
X124448819Y-99203018D01*
X124448818Y-100801231D01*
X124355232Y-100941293D01*
X124284750Y-101111453D01*
X124248818Y-101292093D01*
X124248818Y-101476271D01*
X124284750Y-101656911D01*
X124355232Y-101827071D01*
X124457556Y-101980210D01*
X124587790Y-102110444D01*
X124740929Y-102212768D01*
X124911089Y-102283250D01*
X125091729Y-102319182D01*
X125275907Y-102319182D01*
X125456547Y-102283250D01*
X125626707Y-102212768D01*
X125779846Y-102110444D01*
X125910080Y-101980210D01*
X126012404Y-101827071D01*
X126082886Y-101656911D01*
X126118818Y-101476271D01*
X126118818Y-101292093D01*
X126082886Y-101111453D01*
X126012404Y-100941293D01*
X125918818Y-100801231D01*
X125918818Y-97610616D01*
X125928088Y-97599321D01*
X125996338Y-97471634D01*
X126038366Y-97333086D01*
X126049001Y-97225106D01*
X126049001Y-97225105D01*
X126052557Y-97189001D01*
X126049001Y-97152896D01*
X126049001Y-96649104D01*
X126052557Y-96612999D01*
X126038366Y-96468913D01*
X126021407Y-96413008D01*
X125996338Y-96330366D01*
X125928088Y-96202679D01*
X125849010Y-96106322D01*
X125849010Y-92869676D01*
X125928088Y-92773321D01*
X125996338Y-92645634D01*
X126028584Y-92539333D01*
X126038366Y-92507087D01*
X126052557Y-92363001D01*
X126049001Y-92326896D01*
X126049001Y-91823104D01*
X126052557Y-91786999D01*
X126038366Y-91642914D01*
X125996338Y-91504365D01*
X125958948Y-91434415D01*
X125928088Y-91376679D01*
X125836239Y-91264761D01*
X125808188Y-91241740D01*
X125737001Y-91170553D01*
X125737001Y-90978000D01*
X125822089Y-90978000D01*
X126002729Y-90942068D01*
X126172889Y-90871586D01*
X126326028Y-90769262D01*
X126456262Y-90639028D01*
X126558586Y-90485889D01*
X126629068Y-90315729D01*
X126665000Y-90135089D01*
X126665000Y-89950911D01*
X126629068Y-89770271D01*
X126558586Y-89600111D01*
X126456262Y-89446972D01*
X126326028Y-89316738D01*
X126172889Y-89214414D01*
X126002729Y-89143932D01*
X125822089Y-89108000D01*
X125737001Y-89108000D01*
X125737001Y-89049164D01*
X125796586Y-88959989D01*
X125867068Y-88789829D01*
X125903000Y-88609189D01*
X125903000Y-88425011D01*
X125867068Y-88244371D01*
X125796586Y-88074211D01*
X125694262Y-87921072D01*
X125564028Y-87790838D01*
X125410889Y-87688514D01*
X125240729Y-87618032D01*
X125173203Y-87604600D01*
X125240729Y-87591168D01*
X125410889Y-87520686D01*
X125564028Y-87418362D01*
X125694262Y-87288128D01*
X125796586Y-87134989D01*
X125867068Y-86964829D01*
X125903000Y-86784189D01*
X125903000Y-86600011D01*
X125867068Y-86419371D01*
X125796586Y-86249211D01*
X125694262Y-86096072D01*
X125564028Y-85965838D01*
X125410889Y-85863514D01*
X125240729Y-85793032D01*
X125060089Y-85757100D01*
X124875911Y-85757100D01*
X124695271Y-85793032D01*
X124525111Y-85863514D01*
X124371972Y-85965838D01*
X124241738Y-86096072D01*
X124139414Y-86249211D01*
X124068932Y-86419371D01*
X124033000Y-86600011D01*
X124033000Y-86784189D01*
X124068932Y-86964829D01*
X124139414Y-87134989D01*
X124241738Y-87288128D01*
X124371972Y-87418362D01*
X124525111Y-87520686D01*
X124695271Y-87591168D01*
X124762797Y-87604600D01*
X124695271Y-87618032D01*
X124525111Y-87688514D01*
X124434530Y-87749038D01*
X124425812Y-87660518D01*
X124389502Y-87540820D01*
X124330537Y-87430506D01*
X124251185Y-87333815D01*
X124154494Y-87254463D01*
X124044180Y-87195498D01*
X123924482Y-87159188D01*
X123800000Y-87146928D01*
X123335750Y-87150000D01*
X123177000Y-87308750D01*
X123177000Y-87958000D01*
X123197000Y-87958000D01*
X123197000Y-88212000D01*
X123177000Y-88212000D01*
X123177000Y-89228000D01*
X123197000Y-89228000D01*
X123197000Y-89482000D01*
X123177000Y-89482000D01*
X123177000Y-89502000D01*
X122923000Y-89502000D01*
X122923000Y-89482000D01*
X122903000Y-89482000D01*
X122903000Y-89228000D01*
X122923000Y-89228000D01*
X122923000Y-88212000D01*
X122903000Y-88212000D01*
X122903000Y-87958000D01*
X122923000Y-87958000D01*
X122923000Y-87308750D01*
X122764250Y-87150000D01*
X122345355Y-87147228D01*
X122397000Y-86887592D01*
X122397000Y-86612408D01*
X122343314Y-86342510D01*
X122238005Y-86088273D01*
X122085120Y-85859465D01*
X121890535Y-85664880D01*
X121661727Y-85511995D01*
X121407490Y-85406686D01*
X121137592Y-85353000D01*
X120862408Y-85353000D01*
X120592510Y-85406686D01*
X120338273Y-85511995D01*
X120109465Y-85664880D01*
X119914880Y-85859465D01*
X119761995Y-86088273D01*
X119656686Y-86342510D01*
X119603000Y-86612408D01*
X119603000Y-86628378D01*
X119532865Y-86610977D01*
X119257983Y-86598090D01*
X119024000Y-86633334D01*
X119024000Y-83464000D01*
X122358305Y-83464000D01*
X122301995Y-83548273D01*
G36*
X136433748Y-104515858D02*
G01*
X136419605Y-104530000D01*
X136433748Y-104544143D01*
X136254143Y-104723748D01*
X136240000Y-104709605D01*
X136225858Y-104723748D01*
X136046253Y-104544143D01*
X136060395Y-104530000D01*
X136046253Y-104515858D01*
X136225858Y-104336253D01*
X136240000Y-104350395D01*
X136254143Y-104336253D01*
X136433748Y-104515858D01*
G37*
X136433748Y-104515858D02*
X136419605Y-104530000D01*
X136433748Y-104544143D01*
X136254143Y-104723748D01*
X136240000Y-104709605D01*
X136225858Y-104723748D01*
X136046253Y-104544143D01*
X136060395Y-104530000D01*
X136046253Y-104515858D01*
X136225858Y-104336253D01*
X136240000Y-104350395D01*
X136254143Y-104336253D01*
X136433748Y-104515858D01*
G36*
X133985515Y-99430000D02*
G01*
X133938072Y-99449652D01*
X133938072Y-99410348D01*
X133985515Y-99430000D01*
G37*
X133985515Y-99430000D02*
X133938072Y-99449652D01*
X133938072Y-99410348D01*
X133985515Y-99430000D01*
G36*
X123177000Y-96848000D02*
G01*
X123197000Y-96848000D01*
X123197000Y-97102000D01*
X123177000Y-97102000D01*
X123177000Y-97122000D01*
X122923000Y-97122000D01*
X122923000Y-97102000D01*
X122903000Y-97102000D01*
X122903000Y-96848000D01*
X122923000Y-96848000D01*
X122923000Y-96828000D01*
X123177000Y-96828000D01*
X123177000Y-96848000D01*
G37*
X123177000Y-96848000D02*
X123197000Y-96848000D01*
X123197000Y-97102000D01*
X123177000Y-97102000D01*
X123177000Y-97122000D01*
X122923000Y-97122000D01*
X122923000Y-97102000D01*
X122903000Y-97102000D01*
X122903000Y-96848000D01*
X122923000Y-96848000D01*
X122923000Y-96828000D01*
X123177000Y-96828000D01*
X123177000Y-96848000D01*
G36*
X132677000Y-96848000D02*
G01*
X132697000Y-96848000D01*
X132697000Y-97102000D01*
X132677000Y-97102000D01*
X132677000Y-97122000D01*
X132423000Y-97122000D01*
X132423000Y-97102000D01*
X132403000Y-97102000D01*
X132403000Y-96848000D01*
X132423000Y-96848000D01*
X132423000Y-96828000D01*
X132677000Y-96828000D01*
X132677000Y-96848000D01*
G37*
X132677000Y-96848000D02*
X132697000Y-96848000D01*
X132697000Y-97102000D01*
X132677000Y-97102000D01*
X132677000Y-97122000D01*
X132423000Y-97122000D01*
X132423000Y-97102000D01*
X132403000Y-97102000D01*
X132403000Y-96848000D01*
X132423000Y-96848000D01*
X132423000Y-96828000D01*
X132677000Y-96828000D01*
X132677000Y-96848000D01*
G36*
X133985515Y-96890000D02*
G01*
X133935000Y-96910924D01*
X133935000Y-96869076D01*
X133985515Y-96890000D01*
G37*
X133985515Y-96890000D02*
X133935000Y-96910924D01*
X133935000Y-96869076D01*
X133985515Y-96890000D01*
G36*
X133893297Y-96847998D02*
G01*
X133776252Y-96847998D01*
X133823134Y-96801116D01*
X133893297Y-96847998D01*
G37*
X133893297Y-96847998D02*
X133776252Y-96847998D01*
X133823134Y-96801116D01*
X133893297Y-96847998D01*
G36*
X121661928Y-95672129D02*
G01*
X121661727Y-95671995D01*
X121584485Y-95640000D01*
X121661727Y-95608005D01*
X121661928Y-95607871D01*
X121661928Y-95672129D01*
G37*
X121661928Y-95672129D02*
X121661727Y-95671995D01*
X121584485Y-95640000D01*
X121661727Y-95608005D01*
X121661928Y-95607871D01*
X121661928Y-95672129D01*
G36*
X132677000Y-94308000D02*
G01*
X132697000Y-94308000D01*
X132697000Y-94562000D01*
X132677000Y-94562000D01*
X132677000Y-94582000D01*
X132423000Y-94582000D01*
X132423000Y-94562000D01*
X132403000Y-94562000D01*
X132403000Y-94308000D01*
X132423000Y-94308000D01*
X132423000Y-94288000D01*
X132677000Y-94288000D01*
X132677000Y-94308000D01*
G37*
X132677000Y-94308000D02*
X132697000Y-94308000D01*
X132697000Y-94562000D01*
X132677000Y-94562000D01*
X132677000Y-94582000D01*
X132423000Y-94582000D01*
X132423000Y-94562000D01*
X132403000Y-94562000D01*
X132403000Y-94308000D01*
X132423000Y-94308000D01*
X132423000Y-94288000D01*
X132677000Y-94288000D01*
X132677000Y-94308000D01*
G36*
X123177000Y-94308000D02*
G01*
X123197000Y-94308000D01*
X123197000Y-94562000D01*
X123177000Y-94562000D01*
X123177000Y-94582000D01*
X122923000Y-94582000D01*
X122923000Y-94562000D01*
X122903000Y-94562000D01*
X122903000Y-94308000D01*
X122923000Y-94308000D01*
X122923000Y-94288000D01*
X123177000Y-94288000D01*
X123177000Y-94308000D01*
G37*
X123177000Y-94308000D02*
X123197000Y-94308000D01*
X123197000Y-94562000D01*
X123177000Y-94562000D01*
X123177000Y-94582000D01*
X122923000Y-94582000D01*
X122923000Y-94562000D01*
X122903000Y-94562000D01*
X122903000Y-94308000D01*
X122923000Y-94308000D01*
X122923000Y-94288000D01*
X123177000Y-94288000D01*
X123177000Y-94308000D01*
G36*
X133985515Y-94350000D02*
G01*
X133935000Y-94370924D01*
X133935000Y-94329076D01*
X133985515Y-94350000D01*
G37*
X133985515Y-94350000D02*
X133935000Y-94370924D01*
X133935000Y-94329076D01*
X133985515Y-94350000D01*
G36*
X133893297Y-94307998D02*
G01*
X133776252Y-94307998D01*
X133823134Y-94261116D01*
X133893297Y-94307998D01*
G37*
X133893297Y-94307998D02*
X133776252Y-94307998D01*
X133823134Y-94261116D01*
X133893297Y-94307998D01*
G36*
X121661928Y-93132129D02*
G01*
X121661727Y-93131995D01*
X121584485Y-93100000D01*
X121661727Y-93068005D01*
X121661928Y-93067871D01*
X121661928Y-93132129D01*
G37*
X121661928Y-93132129D02*
X121661727Y-93131995D01*
X121584485Y-93100000D01*
X121661727Y-93068005D01*
X121661928Y-93067871D01*
X121661928Y-93132129D01*
G36*
X132677000Y-91768000D02*
G01*
X132697000Y-91768000D01*
X132697000Y-92022000D01*
X132677000Y-92022000D01*
X132677000Y-92042000D01*
X132423000Y-92042000D01*
X132423000Y-92022000D01*
X132403000Y-92022000D01*
X132403000Y-91768000D01*
X132423000Y-91768000D01*
X132423000Y-91748000D01*
X132677000Y-91748000D01*
X132677000Y-91768000D01*
G37*
X132677000Y-91768000D02*
X132697000Y-91768000D01*
X132697000Y-92022000D01*
X132677000Y-92022000D01*
X132677000Y-92042000D01*
X132423000Y-92042000D01*
X132423000Y-92022000D01*
X132403000Y-92022000D01*
X132403000Y-91768000D01*
X132423000Y-91768000D01*
X132423000Y-91748000D01*
X132677000Y-91748000D01*
X132677000Y-91768000D01*
G36*
X123177000Y-91768000D02*
G01*
X123197000Y-91768000D01*
X123197000Y-92022000D01*
X123177000Y-92022000D01*
X123177000Y-92042000D01*
X122923000Y-92042000D01*
X122923000Y-92022000D01*
X122903000Y-92022000D01*
X122903000Y-91768000D01*
X122923000Y-91768000D01*
X122923000Y-91748000D01*
X123177000Y-91748000D01*
X123177000Y-91768000D01*
G37*
X123177000Y-91768000D02*
X123197000Y-91768000D01*
X123197000Y-92022000D01*
X123177000Y-92022000D01*
X123177000Y-92042000D01*
X122923000Y-92042000D01*
X122923000Y-92022000D01*
X122903000Y-92022000D01*
X122903000Y-91768000D01*
X122923000Y-91768000D01*
X122923000Y-91748000D01*
X123177000Y-91748000D01*
X123177000Y-91768000D01*
G36*
X133985515Y-91810000D02*
G01*
X133935000Y-91830924D01*
X133935000Y-91789076D01*
X133985515Y-91810000D01*
G37*
X133985515Y-91810000D02*
X133935000Y-91830924D01*
X133935000Y-91789076D01*
X133985515Y-91810000D01*
G36*
X133893297Y-91767998D02*
G01*
X133776252Y-91767998D01*
X133823134Y-91721116D01*
X133893297Y-91767998D01*
G37*
X133893297Y-91767998D02*
X133776252Y-91767998D01*
X133823134Y-91721116D01*
X133893297Y-91767998D01*
G36*
X121661928Y-90592129D02*
G01*
X121661727Y-90591995D01*
X121584485Y-90560000D01*
X121661727Y-90528005D01*
X121661928Y-90527871D01*
X121661928Y-90592129D01*
G37*
X121661928Y-90592129D02*
X121661727Y-90591995D01*
X121584485Y-90560000D01*
X121661727Y-90528005D01*
X121661928Y-90527871D01*
X121661928Y-90592129D01*
G36*
X119523748Y-87985858D02*
G01*
X119509605Y-88000000D01*
X119523748Y-88014143D01*
X119344143Y-88193748D01*
X119330000Y-88179605D01*
X119315858Y-88193748D01*
X119136253Y-88014143D01*
X119150395Y-88000000D01*
X119136253Y-87985858D01*
X119315858Y-87806253D01*
X119330000Y-87820395D01*
X119344143Y-87806253D01*
X119523748Y-87985858D01*
G37*
X119523748Y-87985858D02*
X119509605Y-88000000D01*
X119523748Y-88014143D01*
X119344143Y-88193748D01*
X119330000Y-88179605D01*
X119315858Y-88193748D01*
X119136253Y-88014143D01*
X119150395Y-88000000D01*
X119136253Y-87985858D01*
X119315858Y-87806253D01*
X119330000Y-87820395D01*
X119344143Y-87806253D01*
X119523748Y-87985858D01*
M02*
