G04 #@! TF.GenerationSoftware,KiCad,Pcbnew,5.1.5+dfsg1-2build2*
G04 #@! TF.CreationDate,2023-07-02T11:19:25+01:00*
G04 #@! TF.ProjectId,hd36106_replacement,68643336-3130-4365-9f72-65706c616365,rev?*
G04 #@! TF.SameCoordinates,Original*
G04 #@! TF.FileFunction,Legend,Bot*
G04 #@! TF.FilePolarity,Positive*
%FSLAX46Y46*%
G04 Gerber Fmt 4.6, Leading zero omitted, Abs format (unit mm)*
G04 Created by KiCad (PCBNEW 5.1.5+dfsg1-2build2) date 2023-07-02 11:19:25*
%MOMM*%
%LPD*%
G04 APERTURE LIST*
%ADD10C,0.120000*%
G04 APERTURE END LIST*
D10*
X131799000Y-92736936D02*
X131799000Y-93191064D01*
X130329000Y-92736936D02*
X130329000Y-93191064D01*
X132053064Y-91032000D02*
X131598936Y-91032000D01*
X132053064Y-89562000D02*
X131598936Y-89562000D01*
X128116064Y-96366000D02*
X127661936Y-96366000D01*
X128116064Y-94896000D02*
X127661936Y-94896000D01*
X131545064Y-96366000D02*
X131090936Y-96366000D01*
X131545064Y-94896000D02*
X131090936Y-94896000D01*
X127354064Y-98398000D02*
X126899936Y-98398000D01*
X127354064Y-96928000D02*
X126899936Y-96928000D01*
X130783064Y-98398000D02*
X130328936Y-98398000D01*
X130783064Y-96928000D02*
X130328936Y-96928000D01*
X131471936Y-98833000D02*
X131926064Y-98833000D01*
X131471936Y-100303000D02*
X131926064Y-100303000D01*
X131926064Y-102208000D02*
X131471936Y-102208000D01*
X131926064Y-100738000D02*
X131471936Y-100738000D01*
X131418000Y-105817936D02*
X131418000Y-106272064D01*
X129948000Y-105817936D02*
X129948000Y-106272064D01*
X131926064Y-104113000D02*
X131471936Y-104113000D01*
X131926064Y-102643000D02*
X131471936Y-102643000D01*
X124984000Y-89444000D02*
X124984000Y-93344000D01*
X126984000Y-89444000D02*
X126984000Y-93344000D01*
X124984000Y-89444000D02*
X126984000Y-89444000D01*
X127778000Y-89571000D02*
X127778000Y-93471000D01*
X129778000Y-89571000D02*
X129778000Y-93471000D01*
X127778000Y-89571000D02*
X129778000Y-89571000D01*
X129948000Y-87827064D02*
X129948000Y-87372936D01*
X131418000Y-87827064D02*
X131418000Y-87372936D01*
X133335000Y-87372936D02*
X133335000Y-87827064D01*
X131865000Y-87372936D02*
X131865000Y-87827064D01*
X124560000Y-103531936D02*
X124560000Y-103986064D01*
X123090000Y-103531936D02*
X123090000Y-103986064D01*
X126846064Y-103859000D02*
X126391936Y-103859000D01*
X126846064Y-102389000D02*
X126391936Y-102389000D01*
X126391936Y-98833000D02*
X126846064Y-98833000D01*
X126391936Y-100303000D02*
X126846064Y-100303000D01*
X123090000Y-100557064D02*
X123090000Y-100102936D01*
X124560000Y-100557064D02*
X124560000Y-100102936D01*
X123798000Y-87372936D02*
X123798000Y-87827064D01*
X122328000Y-87372936D02*
X122328000Y-87827064D01*
X124233000Y-87831664D02*
X124233000Y-87377536D01*
X125703000Y-87831664D02*
X125703000Y-87377536D01*
X129513000Y-87372936D02*
X129513000Y-87827064D01*
X128043000Y-87372936D02*
X128043000Y-87827064D01*
X126138000Y-87827064D02*
X126138000Y-87372936D01*
X127608000Y-87827064D02*
X127608000Y-87372936D01*
M02*
