M48
; DRILL file {KiCad 5.1.5+dfsg1-2build2} date Sun 02 Jul 2023 11:19:24 BST
; FORMAT={-:-/ absolute / inch / decimal}
; #@! TF.CreationDate,2023-07-02T11:19:24+01:00
; #@! TF.GenerationSoftware,Kicad,Pcbnew,5.1.5+dfsg1-2build2
; #@! TF.FileFunction,Plated,1,4,PTH
FMAT,2
INCH
T1C0.0157
T2C0.0300
%
G90
G05
T1
X4.695Y-3.395
X4.79Y-3.565
X4.79Y-3.665
X4.79Y-3.765
X4.795Y-3.865
X4.7953Y-3.4618
X4.82Y-3.9377
X4.83Y-4.18
X4.875Y-4.0491
X4.89Y-3.87
X4.895Y-3.535
X4.8977Y-3.57
X4.91Y-3.625
X4.91Y-3.815
X4.92Y-3.4131
X4.92Y-3.4849
X4.9285Y-3.9915
X4.9391Y-4.1209
X4.95Y-3.545
X4.95Y-3.755
X4.995Y-3.4847
X4.9978Y-4.1765
X5.0016Y-3.6493
X5.0063Y-3.9787
X5.0209Y-4.0426
X5.035Y-4.185
X5.04Y-3.37
X5.045Y-3.83
X5.05Y-3.6005
X5.07Y-3.4129
X5.07Y-3.55
X5.08Y-4.235
X5.085Y-3.99
X5.1733Y-4.215
X5.1838Y-4.1708
X5.22Y-3.395
X5.27Y-3.715
X5.2744Y-3.4181
X5.275Y-3.615
X5.275Y-3.815
X5.28Y-3.915
T2
X4.698Y-3.4646
X4.698Y-3.5646
X4.698Y-3.6646
X4.698Y-3.7646
X4.698Y-3.8646
X4.698Y-3.9646
X4.698Y-4.0646
X4.698Y-4.1646
X5.298Y-3.4646
X5.298Y-3.5646
X5.298Y-3.6646
X5.298Y-3.7646
X5.298Y-3.8646
X5.298Y-3.9646
X5.298Y-4.0646
X5.298Y-4.1646
X4.7638Y-3.4154
X4.7638Y-3.5154
X4.7638Y-3.6154
X4.7638Y-3.7154
X4.7638Y-3.8154
X4.7638Y-3.9154
X4.7638Y-4.0154
X4.7638Y-4.1154
X4.7638Y-4.2154
X4.8638Y-3.3154
X4.9638Y-3.3154
X5.0638Y-3.3154
X5.1638Y-3.3154
X5.2638Y-3.3154
X5.3638Y-3.4154
X5.3638Y-3.5154
X5.3638Y-3.6154
X5.3638Y-3.7154
X5.3638Y-3.8154
X5.3638Y-3.9154
X5.3638Y-4.0154
X5.3638Y-4.1154
X5.3638Y-4.2154
T0
M30
