G04 #@! TF.GenerationSoftware,KiCad,Pcbnew,5.1.5+dfsg1-2build2*
G04 #@! TF.CreationDate,2023-07-02T11:19:25+01:00*
G04 #@! TF.ProjectId,hd36106_replacement,68643336-3130-4365-9f72-65706c616365,rev?*
G04 #@! TF.SameCoordinates,Original*
G04 #@! TF.FileFunction,Copper,L4,Bot*
G04 #@! TF.FilePolarity,Positive*
%FSLAX46Y46*%
G04 Gerber Fmt 4.6, Leading zero omitted, Abs format (unit mm)*
G04 Created by KiCad (PCBNEW 5.1.5+dfsg1-2build2) date 2023-07-02 11:19:25*
%MOMM*%
%LPD*%
G04 APERTURE LIST*
%ADD10C,1.524000*%
%ADD11C,0.100000*%
%ADD12R,1.200000X0.900000*%
%ADD13C,0.600000*%
%ADD14C,0.200000*%
%ADD15C,0.254000*%
G04 APERTURE END LIST*
D10*
X119330000Y-88000000D03*
X119330000Y-90540000D03*
X119330000Y-93080000D03*
X119330000Y-95620000D03*
X119330000Y-98160000D03*
X119330000Y-100700000D03*
X119330000Y-103240000D03*
X119330000Y-105780000D03*
X134570000Y-105780000D03*
X134570000Y-103240000D03*
X134570000Y-100700000D03*
X134570000Y-98160000D03*
X134570000Y-95620000D03*
X134570000Y-93080000D03*
X134570000Y-90540000D03*
X134570000Y-88000000D03*
G04 #@! TA.AperFunction,SMDPad,CuDef*
D11*
G36*
X131538505Y-93365204D02*
G01*
X131562773Y-93368804D01*
X131586572Y-93374765D01*
X131609671Y-93383030D01*
X131631850Y-93393520D01*
X131652893Y-93406132D01*
X131672599Y-93420747D01*
X131690777Y-93437223D01*
X131707253Y-93455401D01*
X131721868Y-93475107D01*
X131734480Y-93496150D01*
X131744970Y-93518329D01*
X131753235Y-93541428D01*
X131759196Y-93565227D01*
X131762796Y-93589495D01*
X131764000Y-93613999D01*
X131764000Y-94139001D01*
X131762796Y-94163505D01*
X131759196Y-94187773D01*
X131753235Y-94211572D01*
X131744970Y-94234671D01*
X131734480Y-94256850D01*
X131721868Y-94277893D01*
X131707253Y-94297599D01*
X131690777Y-94315777D01*
X131672599Y-94332253D01*
X131652893Y-94346868D01*
X131631850Y-94359480D01*
X131609671Y-94369970D01*
X131586572Y-94378235D01*
X131562773Y-94384196D01*
X131538505Y-94387796D01*
X131514001Y-94389000D01*
X130613999Y-94389000D01*
X130589495Y-94387796D01*
X130565227Y-94384196D01*
X130541428Y-94378235D01*
X130518329Y-94369970D01*
X130496150Y-94359480D01*
X130475107Y-94346868D01*
X130455401Y-94332253D01*
X130437223Y-94315777D01*
X130420747Y-94297599D01*
X130406132Y-94277893D01*
X130393520Y-94256850D01*
X130383030Y-94234671D01*
X130374765Y-94211572D01*
X130368804Y-94187773D01*
X130365204Y-94163505D01*
X130364000Y-94139001D01*
X130364000Y-93613999D01*
X130365204Y-93589495D01*
X130368804Y-93565227D01*
X130374765Y-93541428D01*
X130383030Y-93518329D01*
X130393520Y-93496150D01*
X130406132Y-93475107D01*
X130420747Y-93455401D01*
X130437223Y-93437223D01*
X130455401Y-93420747D01*
X130475107Y-93406132D01*
X130496150Y-93393520D01*
X130518329Y-93383030D01*
X130541428Y-93374765D01*
X130565227Y-93368804D01*
X130589495Y-93365204D01*
X130613999Y-93364000D01*
X131514001Y-93364000D01*
X131538505Y-93365204D01*
G37*
G04 #@! TD.AperFunction*
G04 #@! TA.AperFunction,SMDPad,CuDef*
G36*
X131538505Y-91540204D02*
G01*
X131562773Y-91543804D01*
X131586572Y-91549765D01*
X131609671Y-91558030D01*
X131631850Y-91568520D01*
X131652893Y-91581132D01*
X131672599Y-91595747D01*
X131690777Y-91612223D01*
X131707253Y-91630401D01*
X131721868Y-91650107D01*
X131734480Y-91671150D01*
X131744970Y-91693329D01*
X131753235Y-91716428D01*
X131759196Y-91740227D01*
X131762796Y-91764495D01*
X131764000Y-91788999D01*
X131764000Y-92314001D01*
X131762796Y-92338505D01*
X131759196Y-92362773D01*
X131753235Y-92386572D01*
X131744970Y-92409671D01*
X131734480Y-92431850D01*
X131721868Y-92452893D01*
X131707253Y-92472599D01*
X131690777Y-92490777D01*
X131672599Y-92507253D01*
X131652893Y-92521868D01*
X131631850Y-92534480D01*
X131609671Y-92544970D01*
X131586572Y-92553235D01*
X131562773Y-92559196D01*
X131538505Y-92562796D01*
X131514001Y-92564000D01*
X130613999Y-92564000D01*
X130589495Y-92562796D01*
X130565227Y-92559196D01*
X130541428Y-92553235D01*
X130518329Y-92544970D01*
X130496150Y-92534480D01*
X130475107Y-92521868D01*
X130455401Y-92507253D01*
X130437223Y-92490777D01*
X130420747Y-92472599D01*
X130406132Y-92452893D01*
X130393520Y-92431850D01*
X130383030Y-92409671D01*
X130374765Y-92386572D01*
X130368804Y-92362773D01*
X130365204Y-92338505D01*
X130364000Y-92314001D01*
X130364000Y-91788999D01*
X130365204Y-91764495D01*
X130368804Y-91740227D01*
X130374765Y-91716428D01*
X130383030Y-91693329D01*
X130393520Y-91671150D01*
X130406132Y-91650107D01*
X130420747Y-91630401D01*
X130437223Y-91612223D01*
X130455401Y-91595747D01*
X130475107Y-91581132D01*
X130496150Y-91568520D01*
X130518329Y-91558030D01*
X130541428Y-91549765D01*
X130565227Y-91543804D01*
X130589495Y-91540204D01*
X130613999Y-91539000D01*
X131514001Y-91539000D01*
X131538505Y-91540204D01*
G37*
G04 #@! TD.AperFunction*
G04 #@! TA.AperFunction,SMDPad,CuDef*
G36*
X131200505Y-89598204D02*
G01*
X131224773Y-89601804D01*
X131248572Y-89607765D01*
X131271671Y-89616030D01*
X131293850Y-89626520D01*
X131314893Y-89639132D01*
X131334599Y-89653747D01*
X131352777Y-89670223D01*
X131369253Y-89688401D01*
X131383868Y-89708107D01*
X131396480Y-89729150D01*
X131406970Y-89751329D01*
X131415235Y-89774428D01*
X131421196Y-89798227D01*
X131424796Y-89822495D01*
X131426000Y-89846999D01*
X131426000Y-90747001D01*
X131424796Y-90771505D01*
X131421196Y-90795773D01*
X131415235Y-90819572D01*
X131406970Y-90842671D01*
X131396480Y-90864850D01*
X131383868Y-90885893D01*
X131369253Y-90905599D01*
X131352777Y-90923777D01*
X131334599Y-90940253D01*
X131314893Y-90954868D01*
X131293850Y-90967480D01*
X131271671Y-90977970D01*
X131248572Y-90986235D01*
X131224773Y-90992196D01*
X131200505Y-90995796D01*
X131176001Y-90997000D01*
X130650999Y-90997000D01*
X130626495Y-90995796D01*
X130602227Y-90992196D01*
X130578428Y-90986235D01*
X130555329Y-90977970D01*
X130533150Y-90967480D01*
X130512107Y-90954868D01*
X130492401Y-90940253D01*
X130474223Y-90923777D01*
X130457747Y-90905599D01*
X130443132Y-90885893D01*
X130430520Y-90864850D01*
X130420030Y-90842671D01*
X130411765Y-90819572D01*
X130405804Y-90795773D01*
X130402204Y-90771505D01*
X130401000Y-90747001D01*
X130401000Y-89846999D01*
X130402204Y-89822495D01*
X130405804Y-89798227D01*
X130411765Y-89774428D01*
X130420030Y-89751329D01*
X130430520Y-89729150D01*
X130443132Y-89708107D01*
X130457747Y-89688401D01*
X130474223Y-89670223D01*
X130492401Y-89653747D01*
X130512107Y-89639132D01*
X130533150Y-89626520D01*
X130555329Y-89616030D01*
X130578428Y-89607765D01*
X130602227Y-89601804D01*
X130626495Y-89598204D01*
X130650999Y-89597000D01*
X131176001Y-89597000D01*
X131200505Y-89598204D01*
G37*
G04 #@! TD.AperFunction*
G04 #@! TA.AperFunction,SMDPad,CuDef*
G36*
X133025505Y-89598204D02*
G01*
X133049773Y-89601804D01*
X133073572Y-89607765D01*
X133096671Y-89616030D01*
X133118850Y-89626520D01*
X133139893Y-89639132D01*
X133159599Y-89653747D01*
X133177777Y-89670223D01*
X133194253Y-89688401D01*
X133208868Y-89708107D01*
X133221480Y-89729150D01*
X133231970Y-89751329D01*
X133240235Y-89774428D01*
X133246196Y-89798227D01*
X133249796Y-89822495D01*
X133251000Y-89846999D01*
X133251000Y-90747001D01*
X133249796Y-90771505D01*
X133246196Y-90795773D01*
X133240235Y-90819572D01*
X133231970Y-90842671D01*
X133221480Y-90864850D01*
X133208868Y-90885893D01*
X133194253Y-90905599D01*
X133177777Y-90923777D01*
X133159599Y-90940253D01*
X133139893Y-90954868D01*
X133118850Y-90967480D01*
X133096671Y-90977970D01*
X133073572Y-90986235D01*
X133049773Y-90992196D01*
X133025505Y-90995796D01*
X133001001Y-90997000D01*
X132475999Y-90997000D01*
X132451495Y-90995796D01*
X132427227Y-90992196D01*
X132403428Y-90986235D01*
X132380329Y-90977970D01*
X132358150Y-90967480D01*
X132337107Y-90954868D01*
X132317401Y-90940253D01*
X132299223Y-90923777D01*
X132282747Y-90905599D01*
X132268132Y-90885893D01*
X132255520Y-90864850D01*
X132245030Y-90842671D01*
X132236765Y-90819572D01*
X132230804Y-90795773D01*
X132227204Y-90771505D01*
X132226000Y-90747001D01*
X132226000Y-89846999D01*
X132227204Y-89822495D01*
X132230804Y-89798227D01*
X132236765Y-89774428D01*
X132245030Y-89751329D01*
X132255520Y-89729150D01*
X132268132Y-89708107D01*
X132282747Y-89688401D01*
X132299223Y-89670223D01*
X132317401Y-89653747D01*
X132337107Y-89639132D01*
X132358150Y-89626520D01*
X132380329Y-89616030D01*
X132403428Y-89607765D01*
X132427227Y-89601804D01*
X132451495Y-89598204D01*
X132475999Y-89597000D01*
X133001001Y-89597000D01*
X133025505Y-89598204D01*
G37*
G04 #@! TD.AperFunction*
G04 #@! TA.AperFunction,SMDPad,CuDef*
G36*
X127263505Y-94932204D02*
G01*
X127287773Y-94935804D01*
X127311572Y-94941765D01*
X127334671Y-94950030D01*
X127356850Y-94960520D01*
X127377893Y-94973132D01*
X127397599Y-94987747D01*
X127415777Y-95004223D01*
X127432253Y-95022401D01*
X127446868Y-95042107D01*
X127459480Y-95063150D01*
X127469970Y-95085329D01*
X127478235Y-95108428D01*
X127484196Y-95132227D01*
X127487796Y-95156495D01*
X127489000Y-95180999D01*
X127489000Y-96081001D01*
X127487796Y-96105505D01*
X127484196Y-96129773D01*
X127478235Y-96153572D01*
X127469970Y-96176671D01*
X127459480Y-96198850D01*
X127446868Y-96219893D01*
X127432253Y-96239599D01*
X127415777Y-96257777D01*
X127397599Y-96274253D01*
X127377893Y-96288868D01*
X127356850Y-96301480D01*
X127334671Y-96311970D01*
X127311572Y-96320235D01*
X127287773Y-96326196D01*
X127263505Y-96329796D01*
X127239001Y-96331000D01*
X126713999Y-96331000D01*
X126689495Y-96329796D01*
X126665227Y-96326196D01*
X126641428Y-96320235D01*
X126618329Y-96311970D01*
X126596150Y-96301480D01*
X126575107Y-96288868D01*
X126555401Y-96274253D01*
X126537223Y-96257777D01*
X126520747Y-96239599D01*
X126506132Y-96219893D01*
X126493520Y-96198850D01*
X126483030Y-96176671D01*
X126474765Y-96153572D01*
X126468804Y-96129773D01*
X126465204Y-96105505D01*
X126464000Y-96081001D01*
X126464000Y-95180999D01*
X126465204Y-95156495D01*
X126468804Y-95132227D01*
X126474765Y-95108428D01*
X126483030Y-95085329D01*
X126493520Y-95063150D01*
X126506132Y-95042107D01*
X126520747Y-95022401D01*
X126537223Y-95004223D01*
X126555401Y-94987747D01*
X126575107Y-94973132D01*
X126596150Y-94960520D01*
X126618329Y-94950030D01*
X126641428Y-94941765D01*
X126665227Y-94935804D01*
X126689495Y-94932204D01*
X126713999Y-94931000D01*
X127239001Y-94931000D01*
X127263505Y-94932204D01*
G37*
G04 #@! TD.AperFunction*
G04 #@! TA.AperFunction,SMDPad,CuDef*
G36*
X129088505Y-94932204D02*
G01*
X129112773Y-94935804D01*
X129136572Y-94941765D01*
X129159671Y-94950030D01*
X129181850Y-94960520D01*
X129202893Y-94973132D01*
X129222599Y-94987747D01*
X129240777Y-95004223D01*
X129257253Y-95022401D01*
X129271868Y-95042107D01*
X129284480Y-95063150D01*
X129294970Y-95085329D01*
X129303235Y-95108428D01*
X129309196Y-95132227D01*
X129312796Y-95156495D01*
X129314000Y-95180999D01*
X129314000Y-96081001D01*
X129312796Y-96105505D01*
X129309196Y-96129773D01*
X129303235Y-96153572D01*
X129294970Y-96176671D01*
X129284480Y-96198850D01*
X129271868Y-96219893D01*
X129257253Y-96239599D01*
X129240777Y-96257777D01*
X129222599Y-96274253D01*
X129202893Y-96288868D01*
X129181850Y-96301480D01*
X129159671Y-96311970D01*
X129136572Y-96320235D01*
X129112773Y-96326196D01*
X129088505Y-96329796D01*
X129064001Y-96331000D01*
X128538999Y-96331000D01*
X128514495Y-96329796D01*
X128490227Y-96326196D01*
X128466428Y-96320235D01*
X128443329Y-96311970D01*
X128421150Y-96301480D01*
X128400107Y-96288868D01*
X128380401Y-96274253D01*
X128362223Y-96257777D01*
X128345747Y-96239599D01*
X128331132Y-96219893D01*
X128318520Y-96198850D01*
X128308030Y-96176671D01*
X128299765Y-96153572D01*
X128293804Y-96129773D01*
X128290204Y-96105505D01*
X128289000Y-96081001D01*
X128289000Y-95180999D01*
X128290204Y-95156495D01*
X128293804Y-95132227D01*
X128299765Y-95108428D01*
X128308030Y-95085329D01*
X128318520Y-95063150D01*
X128331132Y-95042107D01*
X128345747Y-95022401D01*
X128362223Y-95004223D01*
X128380401Y-94987747D01*
X128400107Y-94973132D01*
X128421150Y-94960520D01*
X128443329Y-94950030D01*
X128466428Y-94941765D01*
X128490227Y-94935804D01*
X128514495Y-94932204D01*
X128538999Y-94931000D01*
X129064001Y-94931000D01*
X129088505Y-94932204D01*
G37*
G04 #@! TD.AperFunction*
G04 #@! TA.AperFunction,SMDPad,CuDef*
G36*
X130692505Y-94932204D02*
G01*
X130716773Y-94935804D01*
X130740572Y-94941765D01*
X130763671Y-94950030D01*
X130785850Y-94960520D01*
X130806893Y-94973132D01*
X130826599Y-94987747D01*
X130844777Y-95004223D01*
X130861253Y-95022401D01*
X130875868Y-95042107D01*
X130888480Y-95063150D01*
X130898970Y-95085329D01*
X130907235Y-95108428D01*
X130913196Y-95132227D01*
X130916796Y-95156495D01*
X130918000Y-95180999D01*
X130918000Y-96081001D01*
X130916796Y-96105505D01*
X130913196Y-96129773D01*
X130907235Y-96153572D01*
X130898970Y-96176671D01*
X130888480Y-96198850D01*
X130875868Y-96219893D01*
X130861253Y-96239599D01*
X130844777Y-96257777D01*
X130826599Y-96274253D01*
X130806893Y-96288868D01*
X130785850Y-96301480D01*
X130763671Y-96311970D01*
X130740572Y-96320235D01*
X130716773Y-96326196D01*
X130692505Y-96329796D01*
X130668001Y-96331000D01*
X130142999Y-96331000D01*
X130118495Y-96329796D01*
X130094227Y-96326196D01*
X130070428Y-96320235D01*
X130047329Y-96311970D01*
X130025150Y-96301480D01*
X130004107Y-96288868D01*
X129984401Y-96274253D01*
X129966223Y-96257777D01*
X129949747Y-96239599D01*
X129935132Y-96219893D01*
X129922520Y-96198850D01*
X129912030Y-96176671D01*
X129903765Y-96153572D01*
X129897804Y-96129773D01*
X129894204Y-96105505D01*
X129893000Y-96081001D01*
X129893000Y-95180999D01*
X129894204Y-95156495D01*
X129897804Y-95132227D01*
X129903765Y-95108428D01*
X129912030Y-95085329D01*
X129922520Y-95063150D01*
X129935132Y-95042107D01*
X129949747Y-95022401D01*
X129966223Y-95004223D01*
X129984401Y-94987747D01*
X130004107Y-94973132D01*
X130025150Y-94960520D01*
X130047329Y-94950030D01*
X130070428Y-94941765D01*
X130094227Y-94935804D01*
X130118495Y-94932204D01*
X130142999Y-94931000D01*
X130668001Y-94931000D01*
X130692505Y-94932204D01*
G37*
G04 #@! TD.AperFunction*
G04 #@! TA.AperFunction,SMDPad,CuDef*
G36*
X132517505Y-94932204D02*
G01*
X132541773Y-94935804D01*
X132565572Y-94941765D01*
X132588671Y-94950030D01*
X132610850Y-94960520D01*
X132631893Y-94973132D01*
X132651599Y-94987747D01*
X132669777Y-95004223D01*
X132686253Y-95022401D01*
X132700868Y-95042107D01*
X132713480Y-95063150D01*
X132723970Y-95085329D01*
X132732235Y-95108428D01*
X132738196Y-95132227D01*
X132741796Y-95156495D01*
X132743000Y-95180999D01*
X132743000Y-96081001D01*
X132741796Y-96105505D01*
X132738196Y-96129773D01*
X132732235Y-96153572D01*
X132723970Y-96176671D01*
X132713480Y-96198850D01*
X132700868Y-96219893D01*
X132686253Y-96239599D01*
X132669777Y-96257777D01*
X132651599Y-96274253D01*
X132631893Y-96288868D01*
X132610850Y-96301480D01*
X132588671Y-96311970D01*
X132565572Y-96320235D01*
X132541773Y-96326196D01*
X132517505Y-96329796D01*
X132493001Y-96331000D01*
X131967999Y-96331000D01*
X131943495Y-96329796D01*
X131919227Y-96326196D01*
X131895428Y-96320235D01*
X131872329Y-96311970D01*
X131850150Y-96301480D01*
X131829107Y-96288868D01*
X131809401Y-96274253D01*
X131791223Y-96257777D01*
X131774747Y-96239599D01*
X131760132Y-96219893D01*
X131747520Y-96198850D01*
X131737030Y-96176671D01*
X131728765Y-96153572D01*
X131722804Y-96129773D01*
X131719204Y-96105505D01*
X131718000Y-96081001D01*
X131718000Y-95180999D01*
X131719204Y-95156495D01*
X131722804Y-95132227D01*
X131728765Y-95108428D01*
X131737030Y-95085329D01*
X131747520Y-95063150D01*
X131760132Y-95042107D01*
X131774747Y-95022401D01*
X131791223Y-95004223D01*
X131809401Y-94987747D01*
X131829107Y-94973132D01*
X131850150Y-94960520D01*
X131872329Y-94950030D01*
X131895428Y-94941765D01*
X131919227Y-94935804D01*
X131943495Y-94932204D01*
X131967999Y-94931000D01*
X132493001Y-94931000D01*
X132517505Y-94932204D01*
G37*
G04 #@! TD.AperFunction*
G04 #@! TA.AperFunction,SMDPad,CuDef*
G36*
X126501505Y-96964204D02*
G01*
X126525773Y-96967804D01*
X126549572Y-96973765D01*
X126572671Y-96982030D01*
X126594850Y-96992520D01*
X126615893Y-97005132D01*
X126635599Y-97019747D01*
X126653777Y-97036223D01*
X126670253Y-97054401D01*
X126684868Y-97074107D01*
X126697480Y-97095150D01*
X126707970Y-97117329D01*
X126716235Y-97140428D01*
X126722196Y-97164227D01*
X126725796Y-97188495D01*
X126727000Y-97212999D01*
X126727000Y-98113001D01*
X126725796Y-98137505D01*
X126722196Y-98161773D01*
X126716235Y-98185572D01*
X126707970Y-98208671D01*
X126697480Y-98230850D01*
X126684868Y-98251893D01*
X126670253Y-98271599D01*
X126653777Y-98289777D01*
X126635599Y-98306253D01*
X126615893Y-98320868D01*
X126594850Y-98333480D01*
X126572671Y-98343970D01*
X126549572Y-98352235D01*
X126525773Y-98358196D01*
X126501505Y-98361796D01*
X126477001Y-98363000D01*
X125951999Y-98363000D01*
X125927495Y-98361796D01*
X125903227Y-98358196D01*
X125879428Y-98352235D01*
X125856329Y-98343970D01*
X125834150Y-98333480D01*
X125813107Y-98320868D01*
X125793401Y-98306253D01*
X125775223Y-98289777D01*
X125758747Y-98271599D01*
X125744132Y-98251893D01*
X125731520Y-98230850D01*
X125721030Y-98208671D01*
X125712765Y-98185572D01*
X125706804Y-98161773D01*
X125703204Y-98137505D01*
X125702000Y-98113001D01*
X125702000Y-97212999D01*
X125703204Y-97188495D01*
X125706804Y-97164227D01*
X125712765Y-97140428D01*
X125721030Y-97117329D01*
X125731520Y-97095150D01*
X125744132Y-97074107D01*
X125758747Y-97054401D01*
X125775223Y-97036223D01*
X125793401Y-97019747D01*
X125813107Y-97005132D01*
X125834150Y-96992520D01*
X125856329Y-96982030D01*
X125879428Y-96973765D01*
X125903227Y-96967804D01*
X125927495Y-96964204D01*
X125951999Y-96963000D01*
X126477001Y-96963000D01*
X126501505Y-96964204D01*
G37*
G04 #@! TD.AperFunction*
G04 #@! TA.AperFunction,SMDPad,CuDef*
G36*
X128326505Y-96964204D02*
G01*
X128350773Y-96967804D01*
X128374572Y-96973765D01*
X128397671Y-96982030D01*
X128419850Y-96992520D01*
X128440893Y-97005132D01*
X128460599Y-97019747D01*
X128478777Y-97036223D01*
X128495253Y-97054401D01*
X128509868Y-97074107D01*
X128522480Y-97095150D01*
X128532970Y-97117329D01*
X128541235Y-97140428D01*
X128547196Y-97164227D01*
X128550796Y-97188495D01*
X128552000Y-97212999D01*
X128552000Y-98113001D01*
X128550796Y-98137505D01*
X128547196Y-98161773D01*
X128541235Y-98185572D01*
X128532970Y-98208671D01*
X128522480Y-98230850D01*
X128509868Y-98251893D01*
X128495253Y-98271599D01*
X128478777Y-98289777D01*
X128460599Y-98306253D01*
X128440893Y-98320868D01*
X128419850Y-98333480D01*
X128397671Y-98343970D01*
X128374572Y-98352235D01*
X128350773Y-98358196D01*
X128326505Y-98361796D01*
X128302001Y-98363000D01*
X127776999Y-98363000D01*
X127752495Y-98361796D01*
X127728227Y-98358196D01*
X127704428Y-98352235D01*
X127681329Y-98343970D01*
X127659150Y-98333480D01*
X127638107Y-98320868D01*
X127618401Y-98306253D01*
X127600223Y-98289777D01*
X127583747Y-98271599D01*
X127569132Y-98251893D01*
X127556520Y-98230850D01*
X127546030Y-98208671D01*
X127537765Y-98185572D01*
X127531804Y-98161773D01*
X127528204Y-98137505D01*
X127527000Y-98113001D01*
X127527000Y-97212999D01*
X127528204Y-97188495D01*
X127531804Y-97164227D01*
X127537765Y-97140428D01*
X127546030Y-97117329D01*
X127556520Y-97095150D01*
X127569132Y-97074107D01*
X127583747Y-97054401D01*
X127600223Y-97036223D01*
X127618401Y-97019747D01*
X127638107Y-97005132D01*
X127659150Y-96992520D01*
X127681329Y-96982030D01*
X127704428Y-96973765D01*
X127728227Y-96967804D01*
X127752495Y-96964204D01*
X127776999Y-96963000D01*
X128302001Y-96963000D01*
X128326505Y-96964204D01*
G37*
G04 #@! TD.AperFunction*
G04 #@! TA.AperFunction,SMDPad,CuDef*
G36*
X129930505Y-96964204D02*
G01*
X129954773Y-96967804D01*
X129978572Y-96973765D01*
X130001671Y-96982030D01*
X130023850Y-96992520D01*
X130044893Y-97005132D01*
X130064599Y-97019747D01*
X130082777Y-97036223D01*
X130099253Y-97054401D01*
X130113868Y-97074107D01*
X130126480Y-97095150D01*
X130136970Y-97117329D01*
X130145235Y-97140428D01*
X130151196Y-97164227D01*
X130154796Y-97188495D01*
X130156000Y-97212999D01*
X130156000Y-98113001D01*
X130154796Y-98137505D01*
X130151196Y-98161773D01*
X130145235Y-98185572D01*
X130136970Y-98208671D01*
X130126480Y-98230850D01*
X130113868Y-98251893D01*
X130099253Y-98271599D01*
X130082777Y-98289777D01*
X130064599Y-98306253D01*
X130044893Y-98320868D01*
X130023850Y-98333480D01*
X130001671Y-98343970D01*
X129978572Y-98352235D01*
X129954773Y-98358196D01*
X129930505Y-98361796D01*
X129906001Y-98363000D01*
X129380999Y-98363000D01*
X129356495Y-98361796D01*
X129332227Y-98358196D01*
X129308428Y-98352235D01*
X129285329Y-98343970D01*
X129263150Y-98333480D01*
X129242107Y-98320868D01*
X129222401Y-98306253D01*
X129204223Y-98289777D01*
X129187747Y-98271599D01*
X129173132Y-98251893D01*
X129160520Y-98230850D01*
X129150030Y-98208671D01*
X129141765Y-98185572D01*
X129135804Y-98161773D01*
X129132204Y-98137505D01*
X129131000Y-98113001D01*
X129131000Y-97212999D01*
X129132204Y-97188495D01*
X129135804Y-97164227D01*
X129141765Y-97140428D01*
X129150030Y-97117329D01*
X129160520Y-97095150D01*
X129173132Y-97074107D01*
X129187747Y-97054401D01*
X129204223Y-97036223D01*
X129222401Y-97019747D01*
X129242107Y-97005132D01*
X129263150Y-96992520D01*
X129285329Y-96982030D01*
X129308428Y-96973765D01*
X129332227Y-96967804D01*
X129356495Y-96964204D01*
X129380999Y-96963000D01*
X129906001Y-96963000D01*
X129930505Y-96964204D01*
G37*
G04 #@! TD.AperFunction*
G04 #@! TA.AperFunction,SMDPad,CuDef*
G36*
X131755505Y-96964204D02*
G01*
X131779773Y-96967804D01*
X131803572Y-96973765D01*
X131826671Y-96982030D01*
X131848850Y-96992520D01*
X131869893Y-97005132D01*
X131889599Y-97019747D01*
X131907777Y-97036223D01*
X131924253Y-97054401D01*
X131938868Y-97074107D01*
X131951480Y-97095150D01*
X131961970Y-97117329D01*
X131970235Y-97140428D01*
X131976196Y-97164227D01*
X131979796Y-97188495D01*
X131981000Y-97212999D01*
X131981000Y-98113001D01*
X131979796Y-98137505D01*
X131976196Y-98161773D01*
X131970235Y-98185572D01*
X131961970Y-98208671D01*
X131951480Y-98230850D01*
X131938868Y-98251893D01*
X131924253Y-98271599D01*
X131907777Y-98289777D01*
X131889599Y-98306253D01*
X131869893Y-98320868D01*
X131848850Y-98333480D01*
X131826671Y-98343970D01*
X131803572Y-98352235D01*
X131779773Y-98358196D01*
X131755505Y-98361796D01*
X131731001Y-98363000D01*
X131205999Y-98363000D01*
X131181495Y-98361796D01*
X131157227Y-98358196D01*
X131133428Y-98352235D01*
X131110329Y-98343970D01*
X131088150Y-98333480D01*
X131067107Y-98320868D01*
X131047401Y-98306253D01*
X131029223Y-98289777D01*
X131012747Y-98271599D01*
X130998132Y-98251893D01*
X130985520Y-98230850D01*
X130975030Y-98208671D01*
X130966765Y-98185572D01*
X130960804Y-98161773D01*
X130957204Y-98137505D01*
X130956000Y-98113001D01*
X130956000Y-97212999D01*
X130957204Y-97188495D01*
X130960804Y-97164227D01*
X130966765Y-97140428D01*
X130975030Y-97117329D01*
X130985520Y-97095150D01*
X130998132Y-97074107D01*
X131012747Y-97054401D01*
X131029223Y-97036223D01*
X131047401Y-97019747D01*
X131067107Y-97005132D01*
X131088150Y-96992520D01*
X131110329Y-96982030D01*
X131133428Y-96973765D01*
X131157227Y-96967804D01*
X131181495Y-96964204D01*
X131205999Y-96963000D01*
X131731001Y-96963000D01*
X131755505Y-96964204D01*
G37*
G04 #@! TD.AperFunction*
G04 #@! TA.AperFunction,SMDPad,CuDef*
G36*
X132898505Y-98869204D02*
G01*
X132922773Y-98872804D01*
X132946572Y-98878765D01*
X132969671Y-98887030D01*
X132991850Y-98897520D01*
X133012893Y-98910132D01*
X133032599Y-98924747D01*
X133050777Y-98941223D01*
X133067253Y-98959401D01*
X133081868Y-98979107D01*
X133094480Y-99000150D01*
X133104970Y-99022329D01*
X133113235Y-99045428D01*
X133119196Y-99069227D01*
X133122796Y-99093495D01*
X133124000Y-99117999D01*
X133124000Y-100018001D01*
X133122796Y-100042505D01*
X133119196Y-100066773D01*
X133113235Y-100090572D01*
X133104970Y-100113671D01*
X133094480Y-100135850D01*
X133081868Y-100156893D01*
X133067253Y-100176599D01*
X133050777Y-100194777D01*
X133032599Y-100211253D01*
X133012893Y-100225868D01*
X132991850Y-100238480D01*
X132969671Y-100248970D01*
X132946572Y-100257235D01*
X132922773Y-100263196D01*
X132898505Y-100266796D01*
X132874001Y-100268000D01*
X132348999Y-100268000D01*
X132324495Y-100266796D01*
X132300227Y-100263196D01*
X132276428Y-100257235D01*
X132253329Y-100248970D01*
X132231150Y-100238480D01*
X132210107Y-100225868D01*
X132190401Y-100211253D01*
X132172223Y-100194777D01*
X132155747Y-100176599D01*
X132141132Y-100156893D01*
X132128520Y-100135850D01*
X132118030Y-100113671D01*
X132109765Y-100090572D01*
X132103804Y-100066773D01*
X132100204Y-100042505D01*
X132099000Y-100018001D01*
X132099000Y-99117999D01*
X132100204Y-99093495D01*
X132103804Y-99069227D01*
X132109765Y-99045428D01*
X132118030Y-99022329D01*
X132128520Y-99000150D01*
X132141132Y-98979107D01*
X132155747Y-98959401D01*
X132172223Y-98941223D01*
X132190401Y-98924747D01*
X132210107Y-98910132D01*
X132231150Y-98897520D01*
X132253329Y-98887030D01*
X132276428Y-98878765D01*
X132300227Y-98872804D01*
X132324495Y-98869204D01*
X132348999Y-98868000D01*
X132874001Y-98868000D01*
X132898505Y-98869204D01*
G37*
G04 #@! TD.AperFunction*
G04 #@! TA.AperFunction,SMDPad,CuDef*
G36*
X131073505Y-98869204D02*
G01*
X131097773Y-98872804D01*
X131121572Y-98878765D01*
X131144671Y-98887030D01*
X131166850Y-98897520D01*
X131187893Y-98910132D01*
X131207599Y-98924747D01*
X131225777Y-98941223D01*
X131242253Y-98959401D01*
X131256868Y-98979107D01*
X131269480Y-99000150D01*
X131279970Y-99022329D01*
X131288235Y-99045428D01*
X131294196Y-99069227D01*
X131297796Y-99093495D01*
X131299000Y-99117999D01*
X131299000Y-100018001D01*
X131297796Y-100042505D01*
X131294196Y-100066773D01*
X131288235Y-100090572D01*
X131279970Y-100113671D01*
X131269480Y-100135850D01*
X131256868Y-100156893D01*
X131242253Y-100176599D01*
X131225777Y-100194777D01*
X131207599Y-100211253D01*
X131187893Y-100225868D01*
X131166850Y-100238480D01*
X131144671Y-100248970D01*
X131121572Y-100257235D01*
X131097773Y-100263196D01*
X131073505Y-100266796D01*
X131049001Y-100268000D01*
X130523999Y-100268000D01*
X130499495Y-100266796D01*
X130475227Y-100263196D01*
X130451428Y-100257235D01*
X130428329Y-100248970D01*
X130406150Y-100238480D01*
X130385107Y-100225868D01*
X130365401Y-100211253D01*
X130347223Y-100194777D01*
X130330747Y-100176599D01*
X130316132Y-100156893D01*
X130303520Y-100135850D01*
X130293030Y-100113671D01*
X130284765Y-100090572D01*
X130278804Y-100066773D01*
X130275204Y-100042505D01*
X130274000Y-100018001D01*
X130274000Y-99117999D01*
X130275204Y-99093495D01*
X130278804Y-99069227D01*
X130284765Y-99045428D01*
X130293030Y-99022329D01*
X130303520Y-99000150D01*
X130316132Y-98979107D01*
X130330747Y-98959401D01*
X130347223Y-98941223D01*
X130365401Y-98924747D01*
X130385107Y-98910132D01*
X130406150Y-98897520D01*
X130428329Y-98887030D01*
X130451428Y-98878765D01*
X130475227Y-98872804D01*
X130499495Y-98869204D01*
X130523999Y-98868000D01*
X131049001Y-98868000D01*
X131073505Y-98869204D01*
G37*
G04 #@! TD.AperFunction*
G04 #@! TA.AperFunction,SMDPad,CuDef*
G36*
X131073505Y-100774204D02*
G01*
X131097773Y-100777804D01*
X131121572Y-100783765D01*
X131144671Y-100792030D01*
X131166850Y-100802520D01*
X131187893Y-100815132D01*
X131207599Y-100829747D01*
X131225777Y-100846223D01*
X131242253Y-100864401D01*
X131256868Y-100884107D01*
X131269480Y-100905150D01*
X131279970Y-100927329D01*
X131288235Y-100950428D01*
X131294196Y-100974227D01*
X131297796Y-100998495D01*
X131299000Y-101022999D01*
X131299000Y-101923001D01*
X131297796Y-101947505D01*
X131294196Y-101971773D01*
X131288235Y-101995572D01*
X131279970Y-102018671D01*
X131269480Y-102040850D01*
X131256868Y-102061893D01*
X131242253Y-102081599D01*
X131225777Y-102099777D01*
X131207599Y-102116253D01*
X131187893Y-102130868D01*
X131166850Y-102143480D01*
X131144671Y-102153970D01*
X131121572Y-102162235D01*
X131097773Y-102168196D01*
X131073505Y-102171796D01*
X131049001Y-102173000D01*
X130523999Y-102173000D01*
X130499495Y-102171796D01*
X130475227Y-102168196D01*
X130451428Y-102162235D01*
X130428329Y-102153970D01*
X130406150Y-102143480D01*
X130385107Y-102130868D01*
X130365401Y-102116253D01*
X130347223Y-102099777D01*
X130330747Y-102081599D01*
X130316132Y-102061893D01*
X130303520Y-102040850D01*
X130293030Y-102018671D01*
X130284765Y-101995572D01*
X130278804Y-101971773D01*
X130275204Y-101947505D01*
X130274000Y-101923001D01*
X130274000Y-101022999D01*
X130275204Y-100998495D01*
X130278804Y-100974227D01*
X130284765Y-100950428D01*
X130293030Y-100927329D01*
X130303520Y-100905150D01*
X130316132Y-100884107D01*
X130330747Y-100864401D01*
X130347223Y-100846223D01*
X130365401Y-100829747D01*
X130385107Y-100815132D01*
X130406150Y-100802520D01*
X130428329Y-100792030D01*
X130451428Y-100783765D01*
X130475227Y-100777804D01*
X130499495Y-100774204D01*
X130523999Y-100773000D01*
X131049001Y-100773000D01*
X131073505Y-100774204D01*
G37*
G04 #@! TD.AperFunction*
G04 #@! TA.AperFunction,SMDPad,CuDef*
G36*
X132898505Y-100774204D02*
G01*
X132922773Y-100777804D01*
X132946572Y-100783765D01*
X132969671Y-100792030D01*
X132991850Y-100802520D01*
X133012893Y-100815132D01*
X133032599Y-100829747D01*
X133050777Y-100846223D01*
X133067253Y-100864401D01*
X133081868Y-100884107D01*
X133094480Y-100905150D01*
X133104970Y-100927329D01*
X133113235Y-100950428D01*
X133119196Y-100974227D01*
X133122796Y-100998495D01*
X133124000Y-101022999D01*
X133124000Y-101923001D01*
X133122796Y-101947505D01*
X133119196Y-101971773D01*
X133113235Y-101995572D01*
X133104970Y-102018671D01*
X133094480Y-102040850D01*
X133081868Y-102061893D01*
X133067253Y-102081599D01*
X133050777Y-102099777D01*
X133032599Y-102116253D01*
X133012893Y-102130868D01*
X132991850Y-102143480D01*
X132969671Y-102153970D01*
X132946572Y-102162235D01*
X132922773Y-102168196D01*
X132898505Y-102171796D01*
X132874001Y-102173000D01*
X132348999Y-102173000D01*
X132324495Y-102171796D01*
X132300227Y-102168196D01*
X132276428Y-102162235D01*
X132253329Y-102153970D01*
X132231150Y-102143480D01*
X132210107Y-102130868D01*
X132190401Y-102116253D01*
X132172223Y-102099777D01*
X132155747Y-102081599D01*
X132141132Y-102061893D01*
X132128520Y-102040850D01*
X132118030Y-102018671D01*
X132109765Y-101995572D01*
X132103804Y-101971773D01*
X132100204Y-101947505D01*
X132099000Y-101923001D01*
X132099000Y-101022999D01*
X132100204Y-100998495D01*
X132103804Y-100974227D01*
X132109765Y-100950428D01*
X132118030Y-100927329D01*
X132128520Y-100905150D01*
X132141132Y-100884107D01*
X132155747Y-100864401D01*
X132172223Y-100846223D01*
X132190401Y-100829747D01*
X132210107Y-100815132D01*
X132231150Y-100802520D01*
X132253329Y-100792030D01*
X132276428Y-100783765D01*
X132300227Y-100777804D01*
X132324495Y-100774204D01*
X132348999Y-100773000D01*
X132874001Y-100773000D01*
X132898505Y-100774204D01*
G37*
G04 #@! TD.AperFunction*
G04 #@! TA.AperFunction,SMDPad,CuDef*
G36*
X131157505Y-106446204D02*
G01*
X131181773Y-106449804D01*
X131205572Y-106455765D01*
X131228671Y-106464030D01*
X131250850Y-106474520D01*
X131271893Y-106487132D01*
X131291599Y-106501747D01*
X131309777Y-106518223D01*
X131326253Y-106536401D01*
X131340868Y-106556107D01*
X131353480Y-106577150D01*
X131363970Y-106599329D01*
X131372235Y-106622428D01*
X131378196Y-106646227D01*
X131381796Y-106670495D01*
X131383000Y-106694999D01*
X131383000Y-107220001D01*
X131381796Y-107244505D01*
X131378196Y-107268773D01*
X131372235Y-107292572D01*
X131363970Y-107315671D01*
X131353480Y-107337850D01*
X131340868Y-107358893D01*
X131326253Y-107378599D01*
X131309777Y-107396777D01*
X131291599Y-107413253D01*
X131271893Y-107427868D01*
X131250850Y-107440480D01*
X131228671Y-107450970D01*
X131205572Y-107459235D01*
X131181773Y-107465196D01*
X131157505Y-107468796D01*
X131133001Y-107470000D01*
X130232999Y-107470000D01*
X130208495Y-107468796D01*
X130184227Y-107465196D01*
X130160428Y-107459235D01*
X130137329Y-107450970D01*
X130115150Y-107440480D01*
X130094107Y-107427868D01*
X130074401Y-107413253D01*
X130056223Y-107396777D01*
X130039747Y-107378599D01*
X130025132Y-107358893D01*
X130012520Y-107337850D01*
X130002030Y-107315671D01*
X129993765Y-107292572D01*
X129987804Y-107268773D01*
X129984204Y-107244505D01*
X129983000Y-107220001D01*
X129983000Y-106694999D01*
X129984204Y-106670495D01*
X129987804Y-106646227D01*
X129993765Y-106622428D01*
X130002030Y-106599329D01*
X130012520Y-106577150D01*
X130025132Y-106556107D01*
X130039747Y-106536401D01*
X130056223Y-106518223D01*
X130074401Y-106501747D01*
X130094107Y-106487132D01*
X130115150Y-106474520D01*
X130137329Y-106464030D01*
X130160428Y-106455765D01*
X130184227Y-106449804D01*
X130208495Y-106446204D01*
X130232999Y-106445000D01*
X131133001Y-106445000D01*
X131157505Y-106446204D01*
G37*
G04 #@! TD.AperFunction*
G04 #@! TA.AperFunction,SMDPad,CuDef*
G36*
X131157505Y-104621204D02*
G01*
X131181773Y-104624804D01*
X131205572Y-104630765D01*
X131228671Y-104639030D01*
X131250850Y-104649520D01*
X131271893Y-104662132D01*
X131291599Y-104676747D01*
X131309777Y-104693223D01*
X131326253Y-104711401D01*
X131340868Y-104731107D01*
X131353480Y-104752150D01*
X131363970Y-104774329D01*
X131372235Y-104797428D01*
X131378196Y-104821227D01*
X131381796Y-104845495D01*
X131383000Y-104869999D01*
X131383000Y-105395001D01*
X131381796Y-105419505D01*
X131378196Y-105443773D01*
X131372235Y-105467572D01*
X131363970Y-105490671D01*
X131353480Y-105512850D01*
X131340868Y-105533893D01*
X131326253Y-105553599D01*
X131309777Y-105571777D01*
X131291599Y-105588253D01*
X131271893Y-105602868D01*
X131250850Y-105615480D01*
X131228671Y-105625970D01*
X131205572Y-105634235D01*
X131181773Y-105640196D01*
X131157505Y-105643796D01*
X131133001Y-105645000D01*
X130232999Y-105645000D01*
X130208495Y-105643796D01*
X130184227Y-105640196D01*
X130160428Y-105634235D01*
X130137329Y-105625970D01*
X130115150Y-105615480D01*
X130094107Y-105602868D01*
X130074401Y-105588253D01*
X130056223Y-105571777D01*
X130039747Y-105553599D01*
X130025132Y-105533893D01*
X130012520Y-105512850D01*
X130002030Y-105490671D01*
X129993765Y-105467572D01*
X129987804Y-105443773D01*
X129984204Y-105419505D01*
X129983000Y-105395001D01*
X129983000Y-104869999D01*
X129984204Y-104845495D01*
X129987804Y-104821227D01*
X129993765Y-104797428D01*
X130002030Y-104774329D01*
X130012520Y-104752150D01*
X130025132Y-104731107D01*
X130039747Y-104711401D01*
X130056223Y-104693223D01*
X130074401Y-104676747D01*
X130094107Y-104662132D01*
X130115150Y-104649520D01*
X130137329Y-104639030D01*
X130160428Y-104630765D01*
X130184227Y-104624804D01*
X130208495Y-104621204D01*
X130232999Y-104620000D01*
X131133001Y-104620000D01*
X131157505Y-104621204D01*
G37*
G04 #@! TD.AperFunction*
G04 #@! TA.AperFunction,SMDPad,CuDef*
G36*
X131073505Y-102679204D02*
G01*
X131097773Y-102682804D01*
X131121572Y-102688765D01*
X131144671Y-102697030D01*
X131166850Y-102707520D01*
X131187893Y-102720132D01*
X131207599Y-102734747D01*
X131225777Y-102751223D01*
X131242253Y-102769401D01*
X131256868Y-102789107D01*
X131269480Y-102810150D01*
X131279970Y-102832329D01*
X131288235Y-102855428D01*
X131294196Y-102879227D01*
X131297796Y-102903495D01*
X131299000Y-102927999D01*
X131299000Y-103828001D01*
X131297796Y-103852505D01*
X131294196Y-103876773D01*
X131288235Y-103900572D01*
X131279970Y-103923671D01*
X131269480Y-103945850D01*
X131256868Y-103966893D01*
X131242253Y-103986599D01*
X131225777Y-104004777D01*
X131207599Y-104021253D01*
X131187893Y-104035868D01*
X131166850Y-104048480D01*
X131144671Y-104058970D01*
X131121572Y-104067235D01*
X131097773Y-104073196D01*
X131073505Y-104076796D01*
X131049001Y-104078000D01*
X130523999Y-104078000D01*
X130499495Y-104076796D01*
X130475227Y-104073196D01*
X130451428Y-104067235D01*
X130428329Y-104058970D01*
X130406150Y-104048480D01*
X130385107Y-104035868D01*
X130365401Y-104021253D01*
X130347223Y-104004777D01*
X130330747Y-103986599D01*
X130316132Y-103966893D01*
X130303520Y-103945850D01*
X130293030Y-103923671D01*
X130284765Y-103900572D01*
X130278804Y-103876773D01*
X130275204Y-103852505D01*
X130274000Y-103828001D01*
X130274000Y-102927999D01*
X130275204Y-102903495D01*
X130278804Y-102879227D01*
X130284765Y-102855428D01*
X130293030Y-102832329D01*
X130303520Y-102810150D01*
X130316132Y-102789107D01*
X130330747Y-102769401D01*
X130347223Y-102751223D01*
X130365401Y-102734747D01*
X130385107Y-102720132D01*
X130406150Y-102707520D01*
X130428329Y-102697030D01*
X130451428Y-102688765D01*
X130475227Y-102682804D01*
X130499495Y-102679204D01*
X130523999Y-102678000D01*
X131049001Y-102678000D01*
X131073505Y-102679204D01*
G37*
G04 #@! TD.AperFunction*
G04 #@! TA.AperFunction,SMDPad,CuDef*
G36*
X132898505Y-102679204D02*
G01*
X132922773Y-102682804D01*
X132946572Y-102688765D01*
X132969671Y-102697030D01*
X132991850Y-102707520D01*
X133012893Y-102720132D01*
X133032599Y-102734747D01*
X133050777Y-102751223D01*
X133067253Y-102769401D01*
X133081868Y-102789107D01*
X133094480Y-102810150D01*
X133104970Y-102832329D01*
X133113235Y-102855428D01*
X133119196Y-102879227D01*
X133122796Y-102903495D01*
X133124000Y-102927999D01*
X133124000Y-103828001D01*
X133122796Y-103852505D01*
X133119196Y-103876773D01*
X133113235Y-103900572D01*
X133104970Y-103923671D01*
X133094480Y-103945850D01*
X133081868Y-103966893D01*
X133067253Y-103986599D01*
X133050777Y-104004777D01*
X133032599Y-104021253D01*
X133012893Y-104035868D01*
X132991850Y-104048480D01*
X132969671Y-104058970D01*
X132946572Y-104067235D01*
X132922773Y-104073196D01*
X132898505Y-104076796D01*
X132874001Y-104078000D01*
X132348999Y-104078000D01*
X132324495Y-104076796D01*
X132300227Y-104073196D01*
X132276428Y-104067235D01*
X132253329Y-104058970D01*
X132231150Y-104048480D01*
X132210107Y-104035868D01*
X132190401Y-104021253D01*
X132172223Y-104004777D01*
X132155747Y-103986599D01*
X132141132Y-103966893D01*
X132128520Y-103945850D01*
X132118030Y-103923671D01*
X132109765Y-103900572D01*
X132103804Y-103876773D01*
X132100204Y-103852505D01*
X132099000Y-103828001D01*
X132099000Y-102927999D01*
X132100204Y-102903495D01*
X132103804Y-102879227D01*
X132109765Y-102855428D01*
X132118030Y-102832329D01*
X132128520Y-102810150D01*
X132141132Y-102789107D01*
X132155747Y-102769401D01*
X132172223Y-102751223D01*
X132190401Y-102734747D01*
X132210107Y-102720132D01*
X132231150Y-102707520D01*
X132253329Y-102697030D01*
X132276428Y-102688765D01*
X132300227Y-102682804D01*
X132324495Y-102679204D01*
X132348999Y-102678000D01*
X132874001Y-102678000D01*
X132898505Y-102679204D01*
G37*
G04 #@! TD.AperFunction*
D12*
X125984000Y-93344000D03*
X125984000Y-90044000D03*
X128778000Y-93471000D03*
X128778000Y-90171000D03*
D10*
X121000000Y-107070000D03*
X121000000Y-104530000D03*
X121000000Y-101990000D03*
X121000000Y-99450000D03*
X121000000Y-96910000D03*
X121000000Y-94370000D03*
X121000000Y-91830000D03*
X121000000Y-89290000D03*
X121000000Y-86750000D03*
X123540000Y-84210000D03*
X126080000Y-84210000D03*
X128620000Y-84210000D03*
X131160000Y-84210000D03*
X133700000Y-84210000D03*
X136240000Y-86750000D03*
X136240000Y-89290000D03*
X136240000Y-91830000D03*
X136240000Y-94370000D03*
X136240000Y-96910000D03*
X136240000Y-99450000D03*
X136240000Y-101990000D03*
X136240000Y-104530000D03*
X136240000Y-107070000D03*
G04 #@! TA.AperFunction,SMDPad,CuDef*
D11*
G36*
X131157505Y-86176204D02*
G01*
X131181773Y-86179804D01*
X131205572Y-86185765D01*
X131228671Y-86194030D01*
X131250850Y-86204520D01*
X131271893Y-86217132D01*
X131291599Y-86231747D01*
X131309777Y-86248223D01*
X131326253Y-86266401D01*
X131340868Y-86286107D01*
X131353480Y-86307150D01*
X131363970Y-86329329D01*
X131372235Y-86352428D01*
X131378196Y-86376227D01*
X131381796Y-86400495D01*
X131383000Y-86424999D01*
X131383000Y-86950001D01*
X131381796Y-86974505D01*
X131378196Y-86998773D01*
X131372235Y-87022572D01*
X131363970Y-87045671D01*
X131353480Y-87067850D01*
X131340868Y-87088893D01*
X131326253Y-87108599D01*
X131309777Y-87126777D01*
X131291599Y-87143253D01*
X131271893Y-87157868D01*
X131250850Y-87170480D01*
X131228671Y-87180970D01*
X131205572Y-87189235D01*
X131181773Y-87195196D01*
X131157505Y-87198796D01*
X131133001Y-87200000D01*
X130232999Y-87200000D01*
X130208495Y-87198796D01*
X130184227Y-87195196D01*
X130160428Y-87189235D01*
X130137329Y-87180970D01*
X130115150Y-87170480D01*
X130094107Y-87157868D01*
X130074401Y-87143253D01*
X130056223Y-87126777D01*
X130039747Y-87108599D01*
X130025132Y-87088893D01*
X130012520Y-87067850D01*
X130002030Y-87045671D01*
X129993765Y-87022572D01*
X129987804Y-86998773D01*
X129984204Y-86974505D01*
X129983000Y-86950001D01*
X129983000Y-86424999D01*
X129984204Y-86400495D01*
X129987804Y-86376227D01*
X129993765Y-86352428D01*
X130002030Y-86329329D01*
X130012520Y-86307150D01*
X130025132Y-86286107D01*
X130039747Y-86266401D01*
X130056223Y-86248223D01*
X130074401Y-86231747D01*
X130094107Y-86217132D01*
X130115150Y-86204520D01*
X130137329Y-86194030D01*
X130160428Y-86185765D01*
X130184227Y-86179804D01*
X130208495Y-86176204D01*
X130232999Y-86175000D01*
X131133001Y-86175000D01*
X131157505Y-86176204D01*
G37*
G04 #@! TD.AperFunction*
G04 #@! TA.AperFunction,SMDPad,CuDef*
G36*
X131157505Y-88001204D02*
G01*
X131181773Y-88004804D01*
X131205572Y-88010765D01*
X131228671Y-88019030D01*
X131250850Y-88029520D01*
X131271893Y-88042132D01*
X131291599Y-88056747D01*
X131309777Y-88073223D01*
X131326253Y-88091401D01*
X131340868Y-88111107D01*
X131353480Y-88132150D01*
X131363970Y-88154329D01*
X131372235Y-88177428D01*
X131378196Y-88201227D01*
X131381796Y-88225495D01*
X131383000Y-88249999D01*
X131383000Y-88775001D01*
X131381796Y-88799505D01*
X131378196Y-88823773D01*
X131372235Y-88847572D01*
X131363970Y-88870671D01*
X131353480Y-88892850D01*
X131340868Y-88913893D01*
X131326253Y-88933599D01*
X131309777Y-88951777D01*
X131291599Y-88968253D01*
X131271893Y-88982868D01*
X131250850Y-88995480D01*
X131228671Y-89005970D01*
X131205572Y-89014235D01*
X131181773Y-89020196D01*
X131157505Y-89023796D01*
X131133001Y-89025000D01*
X130232999Y-89025000D01*
X130208495Y-89023796D01*
X130184227Y-89020196D01*
X130160428Y-89014235D01*
X130137329Y-89005970D01*
X130115150Y-88995480D01*
X130094107Y-88982868D01*
X130074401Y-88968253D01*
X130056223Y-88951777D01*
X130039747Y-88933599D01*
X130025132Y-88913893D01*
X130012520Y-88892850D01*
X130002030Y-88870671D01*
X129993765Y-88847572D01*
X129987804Y-88823773D01*
X129984204Y-88799505D01*
X129983000Y-88775001D01*
X129983000Y-88249999D01*
X129984204Y-88225495D01*
X129987804Y-88201227D01*
X129993765Y-88177428D01*
X130002030Y-88154329D01*
X130012520Y-88132150D01*
X130025132Y-88111107D01*
X130039747Y-88091401D01*
X130056223Y-88073223D01*
X130074401Y-88056747D01*
X130094107Y-88042132D01*
X130115150Y-88029520D01*
X130137329Y-88019030D01*
X130160428Y-88010765D01*
X130184227Y-88004804D01*
X130208495Y-88001204D01*
X130232999Y-88000000D01*
X131133001Y-88000000D01*
X131157505Y-88001204D01*
G37*
G04 #@! TD.AperFunction*
G04 #@! TA.AperFunction,SMDPad,CuDef*
G36*
X133074505Y-88001204D02*
G01*
X133098773Y-88004804D01*
X133122572Y-88010765D01*
X133145671Y-88019030D01*
X133167850Y-88029520D01*
X133188893Y-88042132D01*
X133208599Y-88056747D01*
X133226777Y-88073223D01*
X133243253Y-88091401D01*
X133257868Y-88111107D01*
X133270480Y-88132150D01*
X133280970Y-88154329D01*
X133289235Y-88177428D01*
X133295196Y-88201227D01*
X133298796Y-88225495D01*
X133300000Y-88249999D01*
X133300000Y-88775001D01*
X133298796Y-88799505D01*
X133295196Y-88823773D01*
X133289235Y-88847572D01*
X133280970Y-88870671D01*
X133270480Y-88892850D01*
X133257868Y-88913893D01*
X133243253Y-88933599D01*
X133226777Y-88951777D01*
X133208599Y-88968253D01*
X133188893Y-88982868D01*
X133167850Y-88995480D01*
X133145671Y-89005970D01*
X133122572Y-89014235D01*
X133098773Y-89020196D01*
X133074505Y-89023796D01*
X133050001Y-89025000D01*
X132149999Y-89025000D01*
X132125495Y-89023796D01*
X132101227Y-89020196D01*
X132077428Y-89014235D01*
X132054329Y-89005970D01*
X132032150Y-88995480D01*
X132011107Y-88982868D01*
X131991401Y-88968253D01*
X131973223Y-88951777D01*
X131956747Y-88933599D01*
X131942132Y-88913893D01*
X131929520Y-88892850D01*
X131919030Y-88870671D01*
X131910765Y-88847572D01*
X131904804Y-88823773D01*
X131901204Y-88799505D01*
X131900000Y-88775001D01*
X131900000Y-88249999D01*
X131901204Y-88225495D01*
X131904804Y-88201227D01*
X131910765Y-88177428D01*
X131919030Y-88154329D01*
X131929520Y-88132150D01*
X131942132Y-88111107D01*
X131956747Y-88091401D01*
X131973223Y-88073223D01*
X131991401Y-88056747D01*
X132011107Y-88042132D01*
X132032150Y-88029520D01*
X132054329Y-88019030D01*
X132077428Y-88010765D01*
X132101227Y-88004804D01*
X132125495Y-88001204D01*
X132149999Y-88000000D01*
X133050001Y-88000000D01*
X133074505Y-88001204D01*
G37*
G04 #@! TD.AperFunction*
G04 #@! TA.AperFunction,SMDPad,CuDef*
G36*
X133074505Y-86176204D02*
G01*
X133098773Y-86179804D01*
X133122572Y-86185765D01*
X133145671Y-86194030D01*
X133167850Y-86204520D01*
X133188893Y-86217132D01*
X133208599Y-86231747D01*
X133226777Y-86248223D01*
X133243253Y-86266401D01*
X133257868Y-86286107D01*
X133270480Y-86307150D01*
X133280970Y-86329329D01*
X133289235Y-86352428D01*
X133295196Y-86376227D01*
X133298796Y-86400495D01*
X133300000Y-86424999D01*
X133300000Y-86950001D01*
X133298796Y-86974505D01*
X133295196Y-86998773D01*
X133289235Y-87022572D01*
X133280970Y-87045671D01*
X133270480Y-87067850D01*
X133257868Y-87088893D01*
X133243253Y-87108599D01*
X133226777Y-87126777D01*
X133208599Y-87143253D01*
X133188893Y-87157868D01*
X133167850Y-87170480D01*
X133145671Y-87180970D01*
X133122572Y-87189235D01*
X133098773Y-87195196D01*
X133074505Y-87198796D01*
X133050001Y-87200000D01*
X132149999Y-87200000D01*
X132125495Y-87198796D01*
X132101227Y-87195196D01*
X132077428Y-87189235D01*
X132054329Y-87180970D01*
X132032150Y-87170480D01*
X132011107Y-87157868D01*
X131991401Y-87143253D01*
X131973223Y-87126777D01*
X131956747Y-87108599D01*
X131942132Y-87088893D01*
X131929520Y-87067850D01*
X131919030Y-87045671D01*
X131910765Y-87022572D01*
X131904804Y-86998773D01*
X131901204Y-86974505D01*
X131900000Y-86950001D01*
X131900000Y-86424999D01*
X131901204Y-86400495D01*
X131904804Y-86376227D01*
X131910765Y-86352428D01*
X131919030Y-86329329D01*
X131929520Y-86307150D01*
X131942132Y-86286107D01*
X131956747Y-86266401D01*
X131973223Y-86248223D01*
X131991401Y-86231747D01*
X132011107Y-86217132D01*
X132032150Y-86204520D01*
X132054329Y-86194030D01*
X132077428Y-86185765D01*
X132101227Y-86179804D01*
X132125495Y-86176204D01*
X132149999Y-86175000D01*
X133050001Y-86175000D01*
X133074505Y-86176204D01*
G37*
G04 #@! TD.AperFunction*
G04 #@! TA.AperFunction,SMDPad,CuDef*
G36*
X124299505Y-104160204D02*
G01*
X124323773Y-104163804D01*
X124347572Y-104169765D01*
X124370671Y-104178030D01*
X124392850Y-104188520D01*
X124413893Y-104201132D01*
X124433599Y-104215747D01*
X124451777Y-104232223D01*
X124468253Y-104250401D01*
X124482868Y-104270107D01*
X124495480Y-104291150D01*
X124505970Y-104313329D01*
X124514235Y-104336428D01*
X124520196Y-104360227D01*
X124523796Y-104384495D01*
X124525000Y-104408999D01*
X124525000Y-104934001D01*
X124523796Y-104958505D01*
X124520196Y-104982773D01*
X124514235Y-105006572D01*
X124505970Y-105029671D01*
X124495480Y-105051850D01*
X124482868Y-105072893D01*
X124468253Y-105092599D01*
X124451777Y-105110777D01*
X124433599Y-105127253D01*
X124413893Y-105141868D01*
X124392850Y-105154480D01*
X124370671Y-105164970D01*
X124347572Y-105173235D01*
X124323773Y-105179196D01*
X124299505Y-105182796D01*
X124275001Y-105184000D01*
X123374999Y-105184000D01*
X123350495Y-105182796D01*
X123326227Y-105179196D01*
X123302428Y-105173235D01*
X123279329Y-105164970D01*
X123257150Y-105154480D01*
X123236107Y-105141868D01*
X123216401Y-105127253D01*
X123198223Y-105110777D01*
X123181747Y-105092599D01*
X123167132Y-105072893D01*
X123154520Y-105051850D01*
X123144030Y-105029671D01*
X123135765Y-105006572D01*
X123129804Y-104982773D01*
X123126204Y-104958505D01*
X123125000Y-104934001D01*
X123125000Y-104408999D01*
X123126204Y-104384495D01*
X123129804Y-104360227D01*
X123135765Y-104336428D01*
X123144030Y-104313329D01*
X123154520Y-104291150D01*
X123167132Y-104270107D01*
X123181747Y-104250401D01*
X123198223Y-104232223D01*
X123216401Y-104215747D01*
X123236107Y-104201132D01*
X123257150Y-104188520D01*
X123279329Y-104178030D01*
X123302428Y-104169765D01*
X123326227Y-104163804D01*
X123350495Y-104160204D01*
X123374999Y-104159000D01*
X124275001Y-104159000D01*
X124299505Y-104160204D01*
G37*
G04 #@! TD.AperFunction*
G04 #@! TA.AperFunction,SMDPad,CuDef*
G36*
X124299505Y-102335204D02*
G01*
X124323773Y-102338804D01*
X124347572Y-102344765D01*
X124370671Y-102353030D01*
X124392850Y-102363520D01*
X124413893Y-102376132D01*
X124433599Y-102390747D01*
X124451777Y-102407223D01*
X124468253Y-102425401D01*
X124482868Y-102445107D01*
X124495480Y-102466150D01*
X124505970Y-102488329D01*
X124514235Y-102511428D01*
X124520196Y-102535227D01*
X124523796Y-102559495D01*
X124525000Y-102583999D01*
X124525000Y-103109001D01*
X124523796Y-103133505D01*
X124520196Y-103157773D01*
X124514235Y-103181572D01*
X124505970Y-103204671D01*
X124495480Y-103226850D01*
X124482868Y-103247893D01*
X124468253Y-103267599D01*
X124451777Y-103285777D01*
X124433599Y-103302253D01*
X124413893Y-103316868D01*
X124392850Y-103329480D01*
X124370671Y-103339970D01*
X124347572Y-103348235D01*
X124323773Y-103354196D01*
X124299505Y-103357796D01*
X124275001Y-103359000D01*
X123374999Y-103359000D01*
X123350495Y-103357796D01*
X123326227Y-103354196D01*
X123302428Y-103348235D01*
X123279329Y-103339970D01*
X123257150Y-103329480D01*
X123236107Y-103316868D01*
X123216401Y-103302253D01*
X123198223Y-103285777D01*
X123181747Y-103267599D01*
X123167132Y-103247893D01*
X123154520Y-103226850D01*
X123144030Y-103204671D01*
X123135765Y-103181572D01*
X123129804Y-103157773D01*
X123126204Y-103133505D01*
X123125000Y-103109001D01*
X123125000Y-102583999D01*
X123126204Y-102559495D01*
X123129804Y-102535227D01*
X123135765Y-102511428D01*
X123144030Y-102488329D01*
X123154520Y-102466150D01*
X123167132Y-102445107D01*
X123181747Y-102425401D01*
X123198223Y-102407223D01*
X123216401Y-102390747D01*
X123236107Y-102376132D01*
X123257150Y-102363520D01*
X123279329Y-102353030D01*
X123302428Y-102344765D01*
X123326227Y-102338804D01*
X123350495Y-102335204D01*
X123374999Y-102334000D01*
X124275001Y-102334000D01*
X124299505Y-102335204D01*
G37*
G04 #@! TD.AperFunction*
G04 #@! TA.AperFunction,SMDPad,CuDef*
G36*
X125993505Y-102425204D02*
G01*
X126017773Y-102428804D01*
X126041572Y-102434765D01*
X126064671Y-102443030D01*
X126086850Y-102453520D01*
X126107893Y-102466132D01*
X126127599Y-102480747D01*
X126145777Y-102497223D01*
X126162253Y-102515401D01*
X126176868Y-102535107D01*
X126189480Y-102556150D01*
X126199970Y-102578329D01*
X126208235Y-102601428D01*
X126214196Y-102625227D01*
X126217796Y-102649495D01*
X126219000Y-102673999D01*
X126219000Y-103574001D01*
X126217796Y-103598505D01*
X126214196Y-103622773D01*
X126208235Y-103646572D01*
X126199970Y-103669671D01*
X126189480Y-103691850D01*
X126176868Y-103712893D01*
X126162253Y-103732599D01*
X126145777Y-103750777D01*
X126127599Y-103767253D01*
X126107893Y-103781868D01*
X126086850Y-103794480D01*
X126064671Y-103804970D01*
X126041572Y-103813235D01*
X126017773Y-103819196D01*
X125993505Y-103822796D01*
X125969001Y-103824000D01*
X125443999Y-103824000D01*
X125419495Y-103822796D01*
X125395227Y-103819196D01*
X125371428Y-103813235D01*
X125348329Y-103804970D01*
X125326150Y-103794480D01*
X125305107Y-103781868D01*
X125285401Y-103767253D01*
X125267223Y-103750777D01*
X125250747Y-103732599D01*
X125236132Y-103712893D01*
X125223520Y-103691850D01*
X125213030Y-103669671D01*
X125204765Y-103646572D01*
X125198804Y-103622773D01*
X125195204Y-103598505D01*
X125194000Y-103574001D01*
X125194000Y-102673999D01*
X125195204Y-102649495D01*
X125198804Y-102625227D01*
X125204765Y-102601428D01*
X125213030Y-102578329D01*
X125223520Y-102556150D01*
X125236132Y-102535107D01*
X125250747Y-102515401D01*
X125267223Y-102497223D01*
X125285401Y-102480747D01*
X125305107Y-102466132D01*
X125326150Y-102453520D01*
X125348329Y-102443030D01*
X125371428Y-102434765D01*
X125395227Y-102428804D01*
X125419495Y-102425204D01*
X125443999Y-102424000D01*
X125969001Y-102424000D01*
X125993505Y-102425204D01*
G37*
G04 #@! TD.AperFunction*
G04 #@! TA.AperFunction,SMDPad,CuDef*
G36*
X127818505Y-102425204D02*
G01*
X127842773Y-102428804D01*
X127866572Y-102434765D01*
X127889671Y-102443030D01*
X127911850Y-102453520D01*
X127932893Y-102466132D01*
X127952599Y-102480747D01*
X127970777Y-102497223D01*
X127987253Y-102515401D01*
X128001868Y-102535107D01*
X128014480Y-102556150D01*
X128024970Y-102578329D01*
X128033235Y-102601428D01*
X128039196Y-102625227D01*
X128042796Y-102649495D01*
X128044000Y-102673999D01*
X128044000Y-103574001D01*
X128042796Y-103598505D01*
X128039196Y-103622773D01*
X128033235Y-103646572D01*
X128024970Y-103669671D01*
X128014480Y-103691850D01*
X128001868Y-103712893D01*
X127987253Y-103732599D01*
X127970777Y-103750777D01*
X127952599Y-103767253D01*
X127932893Y-103781868D01*
X127911850Y-103794480D01*
X127889671Y-103804970D01*
X127866572Y-103813235D01*
X127842773Y-103819196D01*
X127818505Y-103822796D01*
X127794001Y-103824000D01*
X127268999Y-103824000D01*
X127244495Y-103822796D01*
X127220227Y-103819196D01*
X127196428Y-103813235D01*
X127173329Y-103804970D01*
X127151150Y-103794480D01*
X127130107Y-103781868D01*
X127110401Y-103767253D01*
X127092223Y-103750777D01*
X127075747Y-103732599D01*
X127061132Y-103712893D01*
X127048520Y-103691850D01*
X127038030Y-103669671D01*
X127029765Y-103646572D01*
X127023804Y-103622773D01*
X127020204Y-103598505D01*
X127019000Y-103574001D01*
X127019000Y-102673999D01*
X127020204Y-102649495D01*
X127023804Y-102625227D01*
X127029765Y-102601428D01*
X127038030Y-102578329D01*
X127048520Y-102556150D01*
X127061132Y-102535107D01*
X127075747Y-102515401D01*
X127092223Y-102497223D01*
X127110401Y-102480747D01*
X127130107Y-102466132D01*
X127151150Y-102453520D01*
X127173329Y-102443030D01*
X127196428Y-102434765D01*
X127220227Y-102428804D01*
X127244495Y-102425204D01*
X127268999Y-102424000D01*
X127794001Y-102424000D01*
X127818505Y-102425204D01*
G37*
G04 #@! TD.AperFunction*
G04 #@! TA.AperFunction,SMDPad,CuDef*
G36*
X127818505Y-98869204D02*
G01*
X127842773Y-98872804D01*
X127866572Y-98878765D01*
X127889671Y-98887030D01*
X127911850Y-98897520D01*
X127932893Y-98910132D01*
X127952599Y-98924747D01*
X127970777Y-98941223D01*
X127987253Y-98959401D01*
X128001868Y-98979107D01*
X128014480Y-99000150D01*
X128024970Y-99022329D01*
X128033235Y-99045428D01*
X128039196Y-99069227D01*
X128042796Y-99093495D01*
X128044000Y-99117999D01*
X128044000Y-100018001D01*
X128042796Y-100042505D01*
X128039196Y-100066773D01*
X128033235Y-100090572D01*
X128024970Y-100113671D01*
X128014480Y-100135850D01*
X128001868Y-100156893D01*
X127987253Y-100176599D01*
X127970777Y-100194777D01*
X127952599Y-100211253D01*
X127932893Y-100225868D01*
X127911850Y-100238480D01*
X127889671Y-100248970D01*
X127866572Y-100257235D01*
X127842773Y-100263196D01*
X127818505Y-100266796D01*
X127794001Y-100268000D01*
X127268999Y-100268000D01*
X127244495Y-100266796D01*
X127220227Y-100263196D01*
X127196428Y-100257235D01*
X127173329Y-100248970D01*
X127151150Y-100238480D01*
X127130107Y-100225868D01*
X127110401Y-100211253D01*
X127092223Y-100194777D01*
X127075747Y-100176599D01*
X127061132Y-100156893D01*
X127048520Y-100135850D01*
X127038030Y-100113671D01*
X127029765Y-100090572D01*
X127023804Y-100066773D01*
X127020204Y-100042505D01*
X127019000Y-100018001D01*
X127019000Y-99117999D01*
X127020204Y-99093495D01*
X127023804Y-99069227D01*
X127029765Y-99045428D01*
X127038030Y-99022329D01*
X127048520Y-99000150D01*
X127061132Y-98979107D01*
X127075747Y-98959401D01*
X127092223Y-98941223D01*
X127110401Y-98924747D01*
X127130107Y-98910132D01*
X127151150Y-98897520D01*
X127173329Y-98887030D01*
X127196428Y-98878765D01*
X127220227Y-98872804D01*
X127244495Y-98869204D01*
X127268999Y-98868000D01*
X127794001Y-98868000D01*
X127818505Y-98869204D01*
G37*
G04 #@! TD.AperFunction*
G04 #@! TA.AperFunction,SMDPad,CuDef*
G36*
X125993505Y-98869204D02*
G01*
X126017773Y-98872804D01*
X126041572Y-98878765D01*
X126064671Y-98887030D01*
X126086850Y-98897520D01*
X126107893Y-98910132D01*
X126127599Y-98924747D01*
X126145777Y-98941223D01*
X126162253Y-98959401D01*
X126176868Y-98979107D01*
X126189480Y-99000150D01*
X126199970Y-99022329D01*
X126208235Y-99045428D01*
X126214196Y-99069227D01*
X126217796Y-99093495D01*
X126219000Y-99117999D01*
X126219000Y-100018001D01*
X126217796Y-100042505D01*
X126214196Y-100066773D01*
X126208235Y-100090572D01*
X126199970Y-100113671D01*
X126189480Y-100135850D01*
X126176868Y-100156893D01*
X126162253Y-100176599D01*
X126145777Y-100194777D01*
X126127599Y-100211253D01*
X126107893Y-100225868D01*
X126086850Y-100238480D01*
X126064671Y-100248970D01*
X126041572Y-100257235D01*
X126017773Y-100263196D01*
X125993505Y-100266796D01*
X125969001Y-100268000D01*
X125443999Y-100268000D01*
X125419495Y-100266796D01*
X125395227Y-100263196D01*
X125371428Y-100257235D01*
X125348329Y-100248970D01*
X125326150Y-100238480D01*
X125305107Y-100225868D01*
X125285401Y-100211253D01*
X125267223Y-100194777D01*
X125250747Y-100176599D01*
X125236132Y-100156893D01*
X125223520Y-100135850D01*
X125213030Y-100113671D01*
X125204765Y-100090572D01*
X125198804Y-100066773D01*
X125195204Y-100042505D01*
X125194000Y-100018001D01*
X125194000Y-99117999D01*
X125195204Y-99093495D01*
X125198804Y-99069227D01*
X125204765Y-99045428D01*
X125213030Y-99022329D01*
X125223520Y-99000150D01*
X125236132Y-98979107D01*
X125250747Y-98959401D01*
X125267223Y-98941223D01*
X125285401Y-98924747D01*
X125305107Y-98910132D01*
X125326150Y-98897520D01*
X125348329Y-98887030D01*
X125371428Y-98878765D01*
X125395227Y-98872804D01*
X125419495Y-98869204D01*
X125443999Y-98868000D01*
X125969001Y-98868000D01*
X125993505Y-98869204D01*
G37*
G04 #@! TD.AperFunction*
G04 #@! TA.AperFunction,SMDPad,CuDef*
G36*
X124299505Y-98906204D02*
G01*
X124323773Y-98909804D01*
X124347572Y-98915765D01*
X124370671Y-98924030D01*
X124392850Y-98934520D01*
X124413893Y-98947132D01*
X124433599Y-98961747D01*
X124451777Y-98978223D01*
X124468253Y-98996401D01*
X124482868Y-99016107D01*
X124495480Y-99037150D01*
X124505970Y-99059329D01*
X124514235Y-99082428D01*
X124520196Y-99106227D01*
X124523796Y-99130495D01*
X124525000Y-99154999D01*
X124525000Y-99680001D01*
X124523796Y-99704505D01*
X124520196Y-99728773D01*
X124514235Y-99752572D01*
X124505970Y-99775671D01*
X124495480Y-99797850D01*
X124482868Y-99818893D01*
X124468253Y-99838599D01*
X124451777Y-99856777D01*
X124433599Y-99873253D01*
X124413893Y-99887868D01*
X124392850Y-99900480D01*
X124370671Y-99910970D01*
X124347572Y-99919235D01*
X124323773Y-99925196D01*
X124299505Y-99928796D01*
X124275001Y-99930000D01*
X123374999Y-99930000D01*
X123350495Y-99928796D01*
X123326227Y-99925196D01*
X123302428Y-99919235D01*
X123279329Y-99910970D01*
X123257150Y-99900480D01*
X123236107Y-99887868D01*
X123216401Y-99873253D01*
X123198223Y-99856777D01*
X123181747Y-99838599D01*
X123167132Y-99818893D01*
X123154520Y-99797850D01*
X123144030Y-99775671D01*
X123135765Y-99752572D01*
X123129804Y-99728773D01*
X123126204Y-99704505D01*
X123125000Y-99680001D01*
X123125000Y-99154999D01*
X123126204Y-99130495D01*
X123129804Y-99106227D01*
X123135765Y-99082428D01*
X123144030Y-99059329D01*
X123154520Y-99037150D01*
X123167132Y-99016107D01*
X123181747Y-98996401D01*
X123198223Y-98978223D01*
X123216401Y-98961747D01*
X123236107Y-98947132D01*
X123257150Y-98934520D01*
X123279329Y-98924030D01*
X123302428Y-98915765D01*
X123326227Y-98909804D01*
X123350495Y-98906204D01*
X123374999Y-98905000D01*
X124275001Y-98905000D01*
X124299505Y-98906204D01*
G37*
G04 #@! TD.AperFunction*
G04 #@! TA.AperFunction,SMDPad,CuDef*
G36*
X124299505Y-100731204D02*
G01*
X124323773Y-100734804D01*
X124347572Y-100740765D01*
X124370671Y-100749030D01*
X124392850Y-100759520D01*
X124413893Y-100772132D01*
X124433599Y-100786747D01*
X124451777Y-100803223D01*
X124468253Y-100821401D01*
X124482868Y-100841107D01*
X124495480Y-100862150D01*
X124505970Y-100884329D01*
X124514235Y-100907428D01*
X124520196Y-100931227D01*
X124523796Y-100955495D01*
X124525000Y-100979999D01*
X124525000Y-101505001D01*
X124523796Y-101529505D01*
X124520196Y-101553773D01*
X124514235Y-101577572D01*
X124505970Y-101600671D01*
X124495480Y-101622850D01*
X124482868Y-101643893D01*
X124468253Y-101663599D01*
X124451777Y-101681777D01*
X124433599Y-101698253D01*
X124413893Y-101712868D01*
X124392850Y-101725480D01*
X124370671Y-101735970D01*
X124347572Y-101744235D01*
X124323773Y-101750196D01*
X124299505Y-101753796D01*
X124275001Y-101755000D01*
X123374999Y-101755000D01*
X123350495Y-101753796D01*
X123326227Y-101750196D01*
X123302428Y-101744235D01*
X123279329Y-101735970D01*
X123257150Y-101725480D01*
X123236107Y-101712868D01*
X123216401Y-101698253D01*
X123198223Y-101681777D01*
X123181747Y-101663599D01*
X123167132Y-101643893D01*
X123154520Y-101622850D01*
X123144030Y-101600671D01*
X123135765Y-101577572D01*
X123129804Y-101553773D01*
X123126204Y-101529505D01*
X123125000Y-101505001D01*
X123125000Y-100979999D01*
X123126204Y-100955495D01*
X123129804Y-100931227D01*
X123135765Y-100907428D01*
X123144030Y-100884329D01*
X123154520Y-100862150D01*
X123167132Y-100841107D01*
X123181747Y-100821401D01*
X123198223Y-100803223D01*
X123216401Y-100786747D01*
X123236107Y-100772132D01*
X123257150Y-100759520D01*
X123279329Y-100749030D01*
X123302428Y-100740765D01*
X123326227Y-100734804D01*
X123350495Y-100731204D01*
X123374999Y-100730000D01*
X124275001Y-100730000D01*
X124299505Y-100731204D01*
G37*
G04 #@! TD.AperFunction*
G04 #@! TA.AperFunction,SMDPad,CuDef*
G36*
X123537505Y-88001204D02*
G01*
X123561773Y-88004804D01*
X123585572Y-88010765D01*
X123608671Y-88019030D01*
X123630850Y-88029520D01*
X123651893Y-88042132D01*
X123671599Y-88056747D01*
X123689777Y-88073223D01*
X123706253Y-88091401D01*
X123720868Y-88111107D01*
X123733480Y-88132150D01*
X123743970Y-88154329D01*
X123752235Y-88177428D01*
X123758196Y-88201227D01*
X123761796Y-88225495D01*
X123763000Y-88249999D01*
X123763000Y-88775001D01*
X123761796Y-88799505D01*
X123758196Y-88823773D01*
X123752235Y-88847572D01*
X123743970Y-88870671D01*
X123733480Y-88892850D01*
X123720868Y-88913893D01*
X123706253Y-88933599D01*
X123689777Y-88951777D01*
X123671599Y-88968253D01*
X123651893Y-88982868D01*
X123630850Y-88995480D01*
X123608671Y-89005970D01*
X123585572Y-89014235D01*
X123561773Y-89020196D01*
X123537505Y-89023796D01*
X123513001Y-89025000D01*
X122612999Y-89025000D01*
X122588495Y-89023796D01*
X122564227Y-89020196D01*
X122540428Y-89014235D01*
X122517329Y-89005970D01*
X122495150Y-88995480D01*
X122474107Y-88982868D01*
X122454401Y-88968253D01*
X122436223Y-88951777D01*
X122419747Y-88933599D01*
X122405132Y-88913893D01*
X122392520Y-88892850D01*
X122382030Y-88870671D01*
X122373765Y-88847572D01*
X122367804Y-88823773D01*
X122364204Y-88799505D01*
X122363000Y-88775001D01*
X122363000Y-88249999D01*
X122364204Y-88225495D01*
X122367804Y-88201227D01*
X122373765Y-88177428D01*
X122382030Y-88154329D01*
X122392520Y-88132150D01*
X122405132Y-88111107D01*
X122419747Y-88091401D01*
X122436223Y-88073223D01*
X122454401Y-88056747D01*
X122474107Y-88042132D01*
X122495150Y-88029520D01*
X122517329Y-88019030D01*
X122540428Y-88010765D01*
X122564227Y-88004804D01*
X122588495Y-88001204D01*
X122612999Y-88000000D01*
X123513001Y-88000000D01*
X123537505Y-88001204D01*
G37*
G04 #@! TD.AperFunction*
G04 #@! TA.AperFunction,SMDPad,CuDef*
G36*
X123537505Y-86176204D02*
G01*
X123561773Y-86179804D01*
X123585572Y-86185765D01*
X123608671Y-86194030D01*
X123630850Y-86204520D01*
X123651893Y-86217132D01*
X123671599Y-86231747D01*
X123689777Y-86248223D01*
X123706253Y-86266401D01*
X123720868Y-86286107D01*
X123733480Y-86307150D01*
X123743970Y-86329329D01*
X123752235Y-86352428D01*
X123758196Y-86376227D01*
X123761796Y-86400495D01*
X123763000Y-86424999D01*
X123763000Y-86950001D01*
X123761796Y-86974505D01*
X123758196Y-86998773D01*
X123752235Y-87022572D01*
X123743970Y-87045671D01*
X123733480Y-87067850D01*
X123720868Y-87088893D01*
X123706253Y-87108599D01*
X123689777Y-87126777D01*
X123671599Y-87143253D01*
X123651893Y-87157868D01*
X123630850Y-87170480D01*
X123608671Y-87180970D01*
X123585572Y-87189235D01*
X123561773Y-87195196D01*
X123537505Y-87198796D01*
X123513001Y-87200000D01*
X122612999Y-87200000D01*
X122588495Y-87198796D01*
X122564227Y-87195196D01*
X122540428Y-87189235D01*
X122517329Y-87180970D01*
X122495150Y-87170480D01*
X122474107Y-87157868D01*
X122454401Y-87143253D01*
X122436223Y-87126777D01*
X122419747Y-87108599D01*
X122405132Y-87088893D01*
X122392520Y-87067850D01*
X122382030Y-87045671D01*
X122373765Y-87022572D01*
X122367804Y-86998773D01*
X122364204Y-86974505D01*
X122363000Y-86950001D01*
X122363000Y-86424999D01*
X122364204Y-86400495D01*
X122367804Y-86376227D01*
X122373765Y-86352428D01*
X122382030Y-86329329D01*
X122392520Y-86307150D01*
X122405132Y-86286107D01*
X122419747Y-86266401D01*
X122436223Y-86248223D01*
X122454401Y-86231747D01*
X122474107Y-86217132D01*
X122495150Y-86204520D01*
X122517329Y-86194030D01*
X122540428Y-86185765D01*
X122564227Y-86179804D01*
X122588495Y-86176204D01*
X122612999Y-86175000D01*
X123513001Y-86175000D01*
X123537505Y-86176204D01*
G37*
G04 #@! TD.AperFunction*
G04 #@! TA.AperFunction,SMDPad,CuDef*
G36*
X125442505Y-86180804D02*
G01*
X125466773Y-86184404D01*
X125490572Y-86190365D01*
X125513671Y-86198630D01*
X125535850Y-86209120D01*
X125556893Y-86221732D01*
X125576599Y-86236347D01*
X125594777Y-86252823D01*
X125611253Y-86271001D01*
X125625868Y-86290707D01*
X125638480Y-86311750D01*
X125648970Y-86333929D01*
X125657235Y-86357028D01*
X125663196Y-86380827D01*
X125666796Y-86405095D01*
X125668000Y-86429599D01*
X125668000Y-86954601D01*
X125666796Y-86979105D01*
X125663196Y-87003373D01*
X125657235Y-87027172D01*
X125648970Y-87050271D01*
X125638480Y-87072450D01*
X125625868Y-87093493D01*
X125611253Y-87113199D01*
X125594777Y-87131377D01*
X125576599Y-87147853D01*
X125556893Y-87162468D01*
X125535850Y-87175080D01*
X125513671Y-87185570D01*
X125490572Y-87193835D01*
X125466773Y-87199796D01*
X125442505Y-87203396D01*
X125418001Y-87204600D01*
X124517999Y-87204600D01*
X124493495Y-87203396D01*
X124469227Y-87199796D01*
X124445428Y-87193835D01*
X124422329Y-87185570D01*
X124400150Y-87175080D01*
X124379107Y-87162468D01*
X124359401Y-87147853D01*
X124341223Y-87131377D01*
X124324747Y-87113199D01*
X124310132Y-87093493D01*
X124297520Y-87072450D01*
X124287030Y-87050271D01*
X124278765Y-87027172D01*
X124272804Y-87003373D01*
X124269204Y-86979105D01*
X124268000Y-86954601D01*
X124268000Y-86429599D01*
X124269204Y-86405095D01*
X124272804Y-86380827D01*
X124278765Y-86357028D01*
X124287030Y-86333929D01*
X124297520Y-86311750D01*
X124310132Y-86290707D01*
X124324747Y-86271001D01*
X124341223Y-86252823D01*
X124359401Y-86236347D01*
X124379107Y-86221732D01*
X124400150Y-86209120D01*
X124422329Y-86198630D01*
X124445428Y-86190365D01*
X124469227Y-86184404D01*
X124493495Y-86180804D01*
X124517999Y-86179600D01*
X125418001Y-86179600D01*
X125442505Y-86180804D01*
G37*
G04 #@! TD.AperFunction*
G04 #@! TA.AperFunction,SMDPad,CuDef*
G36*
X125442505Y-88005804D02*
G01*
X125466773Y-88009404D01*
X125490572Y-88015365D01*
X125513671Y-88023630D01*
X125535850Y-88034120D01*
X125556893Y-88046732D01*
X125576599Y-88061347D01*
X125594777Y-88077823D01*
X125611253Y-88096001D01*
X125625868Y-88115707D01*
X125638480Y-88136750D01*
X125648970Y-88158929D01*
X125657235Y-88182028D01*
X125663196Y-88205827D01*
X125666796Y-88230095D01*
X125668000Y-88254599D01*
X125668000Y-88779601D01*
X125666796Y-88804105D01*
X125663196Y-88828373D01*
X125657235Y-88852172D01*
X125648970Y-88875271D01*
X125638480Y-88897450D01*
X125625868Y-88918493D01*
X125611253Y-88938199D01*
X125594777Y-88956377D01*
X125576599Y-88972853D01*
X125556893Y-88987468D01*
X125535850Y-89000080D01*
X125513671Y-89010570D01*
X125490572Y-89018835D01*
X125466773Y-89024796D01*
X125442505Y-89028396D01*
X125418001Y-89029600D01*
X124517999Y-89029600D01*
X124493495Y-89028396D01*
X124469227Y-89024796D01*
X124445428Y-89018835D01*
X124422329Y-89010570D01*
X124400150Y-89000080D01*
X124379107Y-88987468D01*
X124359401Y-88972853D01*
X124341223Y-88956377D01*
X124324747Y-88938199D01*
X124310132Y-88918493D01*
X124297520Y-88897450D01*
X124287030Y-88875271D01*
X124278765Y-88852172D01*
X124272804Y-88828373D01*
X124269204Y-88804105D01*
X124268000Y-88779601D01*
X124268000Y-88254599D01*
X124269204Y-88230095D01*
X124272804Y-88205827D01*
X124278765Y-88182028D01*
X124287030Y-88158929D01*
X124297520Y-88136750D01*
X124310132Y-88115707D01*
X124324747Y-88096001D01*
X124341223Y-88077823D01*
X124359401Y-88061347D01*
X124379107Y-88046732D01*
X124400150Y-88034120D01*
X124422329Y-88023630D01*
X124445428Y-88015365D01*
X124469227Y-88009404D01*
X124493495Y-88005804D01*
X124517999Y-88004600D01*
X125418001Y-88004600D01*
X125442505Y-88005804D01*
G37*
G04 #@! TD.AperFunction*
G04 #@! TA.AperFunction,SMDPad,CuDef*
G36*
X129252505Y-88001204D02*
G01*
X129276773Y-88004804D01*
X129300572Y-88010765D01*
X129323671Y-88019030D01*
X129345850Y-88029520D01*
X129366893Y-88042132D01*
X129386599Y-88056747D01*
X129404777Y-88073223D01*
X129421253Y-88091401D01*
X129435868Y-88111107D01*
X129448480Y-88132150D01*
X129458970Y-88154329D01*
X129467235Y-88177428D01*
X129473196Y-88201227D01*
X129476796Y-88225495D01*
X129478000Y-88249999D01*
X129478000Y-88775001D01*
X129476796Y-88799505D01*
X129473196Y-88823773D01*
X129467235Y-88847572D01*
X129458970Y-88870671D01*
X129448480Y-88892850D01*
X129435868Y-88913893D01*
X129421253Y-88933599D01*
X129404777Y-88951777D01*
X129386599Y-88968253D01*
X129366893Y-88982868D01*
X129345850Y-88995480D01*
X129323671Y-89005970D01*
X129300572Y-89014235D01*
X129276773Y-89020196D01*
X129252505Y-89023796D01*
X129228001Y-89025000D01*
X128327999Y-89025000D01*
X128303495Y-89023796D01*
X128279227Y-89020196D01*
X128255428Y-89014235D01*
X128232329Y-89005970D01*
X128210150Y-88995480D01*
X128189107Y-88982868D01*
X128169401Y-88968253D01*
X128151223Y-88951777D01*
X128134747Y-88933599D01*
X128120132Y-88913893D01*
X128107520Y-88892850D01*
X128097030Y-88870671D01*
X128088765Y-88847572D01*
X128082804Y-88823773D01*
X128079204Y-88799505D01*
X128078000Y-88775001D01*
X128078000Y-88249999D01*
X128079204Y-88225495D01*
X128082804Y-88201227D01*
X128088765Y-88177428D01*
X128097030Y-88154329D01*
X128107520Y-88132150D01*
X128120132Y-88111107D01*
X128134747Y-88091401D01*
X128151223Y-88073223D01*
X128169401Y-88056747D01*
X128189107Y-88042132D01*
X128210150Y-88029520D01*
X128232329Y-88019030D01*
X128255428Y-88010765D01*
X128279227Y-88004804D01*
X128303495Y-88001204D01*
X128327999Y-88000000D01*
X129228001Y-88000000D01*
X129252505Y-88001204D01*
G37*
G04 #@! TD.AperFunction*
G04 #@! TA.AperFunction,SMDPad,CuDef*
G36*
X129252505Y-86176204D02*
G01*
X129276773Y-86179804D01*
X129300572Y-86185765D01*
X129323671Y-86194030D01*
X129345850Y-86204520D01*
X129366893Y-86217132D01*
X129386599Y-86231747D01*
X129404777Y-86248223D01*
X129421253Y-86266401D01*
X129435868Y-86286107D01*
X129448480Y-86307150D01*
X129458970Y-86329329D01*
X129467235Y-86352428D01*
X129473196Y-86376227D01*
X129476796Y-86400495D01*
X129478000Y-86424999D01*
X129478000Y-86950001D01*
X129476796Y-86974505D01*
X129473196Y-86998773D01*
X129467235Y-87022572D01*
X129458970Y-87045671D01*
X129448480Y-87067850D01*
X129435868Y-87088893D01*
X129421253Y-87108599D01*
X129404777Y-87126777D01*
X129386599Y-87143253D01*
X129366893Y-87157868D01*
X129345850Y-87170480D01*
X129323671Y-87180970D01*
X129300572Y-87189235D01*
X129276773Y-87195196D01*
X129252505Y-87198796D01*
X129228001Y-87200000D01*
X128327999Y-87200000D01*
X128303495Y-87198796D01*
X128279227Y-87195196D01*
X128255428Y-87189235D01*
X128232329Y-87180970D01*
X128210150Y-87170480D01*
X128189107Y-87157868D01*
X128169401Y-87143253D01*
X128151223Y-87126777D01*
X128134747Y-87108599D01*
X128120132Y-87088893D01*
X128107520Y-87067850D01*
X128097030Y-87045671D01*
X128088765Y-87022572D01*
X128082804Y-86998773D01*
X128079204Y-86974505D01*
X128078000Y-86950001D01*
X128078000Y-86424999D01*
X128079204Y-86400495D01*
X128082804Y-86376227D01*
X128088765Y-86352428D01*
X128097030Y-86329329D01*
X128107520Y-86307150D01*
X128120132Y-86286107D01*
X128134747Y-86266401D01*
X128151223Y-86248223D01*
X128169401Y-86231747D01*
X128189107Y-86217132D01*
X128210150Y-86204520D01*
X128232329Y-86194030D01*
X128255428Y-86185765D01*
X128279227Y-86179804D01*
X128303495Y-86176204D01*
X128327999Y-86175000D01*
X129228001Y-86175000D01*
X129252505Y-86176204D01*
G37*
G04 #@! TD.AperFunction*
G04 #@! TA.AperFunction,SMDPad,CuDef*
G36*
X127347505Y-86176204D02*
G01*
X127371773Y-86179804D01*
X127395572Y-86185765D01*
X127418671Y-86194030D01*
X127440850Y-86204520D01*
X127461893Y-86217132D01*
X127481599Y-86231747D01*
X127499777Y-86248223D01*
X127516253Y-86266401D01*
X127530868Y-86286107D01*
X127543480Y-86307150D01*
X127553970Y-86329329D01*
X127562235Y-86352428D01*
X127568196Y-86376227D01*
X127571796Y-86400495D01*
X127573000Y-86424999D01*
X127573000Y-86950001D01*
X127571796Y-86974505D01*
X127568196Y-86998773D01*
X127562235Y-87022572D01*
X127553970Y-87045671D01*
X127543480Y-87067850D01*
X127530868Y-87088893D01*
X127516253Y-87108599D01*
X127499777Y-87126777D01*
X127481599Y-87143253D01*
X127461893Y-87157868D01*
X127440850Y-87170480D01*
X127418671Y-87180970D01*
X127395572Y-87189235D01*
X127371773Y-87195196D01*
X127347505Y-87198796D01*
X127323001Y-87200000D01*
X126422999Y-87200000D01*
X126398495Y-87198796D01*
X126374227Y-87195196D01*
X126350428Y-87189235D01*
X126327329Y-87180970D01*
X126305150Y-87170480D01*
X126284107Y-87157868D01*
X126264401Y-87143253D01*
X126246223Y-87126777D01*
X126229747Y-87108599D01*
X126215132Y-87088893D01*
X126202520Y-87067850D01*
X126192030Y-87045671D01*
X126183765Y-87022572D01*
X126177804Y-86998773D01*
X126174204Y-86974505D01*
X126173000Y-86950001D01*
X126173000Y-86424999D01*
X126174204Y-86400495D01*
X126177804Y-86376227D01*
X126183765Y-86352428D01*
X126192030Y-86329329D01*
X126202520Y-86307150D01*
X126215132Y-86286107D01*
X126229747Y-86266401D01*
X126246223Y-86248223D01*
X126264401Y-86231747D01*
X126284107Y-86217132D01*
X126305150Y-86204520D01*
X126327329Y-86194030D01*
X126350428Y-86185765D01*
X126374227Y-86179804D01*
X126398495Y-86176204D01*
X126422999Y-86175000D01*
X127323001Y-86175000D01*
X127347505Y-86176204D01*
G37*
G04 #@! TD.AperFunction*
G04 #@! TA.AperFunction,SMDPad,CuDef*
G36*
X127347505Y-88001204D02*
G01*
X127371773Y-88004804D01*
X127395572Y-88010765D01*
X127418671Y-88019030D01*
X127440850Y-88029520D01*
X127461893Y-88042132D01*
X127481599Y-88056747D01*
X127499777Y-88073223D01*
X127516253Y-88091401D01*
X127530868Y-88111107D01*
X127543480Y-88132150D01*
X127553970Y-88154329D01*
X127562235Y-88177428D01*
X127568196Y-88201227D01*
X127571796Y-88225495D01*
X127573000Y-88249999D01*
X127573000Y-88775001D01*
X127571796Y-88799505D01*
X127568196Y-88823773D01*
X127562235Y-88847572D01*
X127553970Y-88870671D01*
X127543480Y-88892850D01*
X127530868Y-88913893D01*
X127516253Y-88933599D01*
X127499777Y-88951777D01*
X127481599Y-88968253D01*
X127461893Y-88982868D01*
X127440850Y-88995480D01*
X127418671Y-89005970D01*
X127395572Y-89014235D01*
X127371773Y-89020196D01*
X127347505Y-89023796D01*
X127323001Y-89025000D01*
X126422999Y-89025000D01*
X126398495Y-89023796D01*
X126374227Y-89020196D01*
X126350428Y-89014235D01*
X126327329Y-89005970D01*
X126305150Y-88995480D01*
X126284107Y-88982868D01*
X126264401Y-88968253D01*
X126246223Y-88951777D01*
X126229747Y-88933599D01*
X126215132Y-88913893D01*
X126202520Y-88892850D01*
X126192030Y-88870671D01*
X126183765Y-88847572D01*
X126177804Y-88823773D01*
X126174204Y-88799505D01*
X126173000Y-88775001D01*
X126173000Y-88249999D01*
X126174204Y-88225495D01*
X126177804Y-88201227D01*
X126183765Y-88177428D01*
X126192030Y-88154329D01*
X126202520Y-88132150D01*
X126215132Y-88111107D01*
X126229747Y-88091401D01*
X126246223Y-88073223D01*
X126264401Y-88056747D01*
X126284107Y-88042132D01*
X126305150Y-88029520D01*
X126327329Y-88019030D01*
X126350428Y-88010765D01*
X126374227Y-88004804D01*
X126398495Y-88001204D01*
X126422999Y-88000000D01*
X127323001Y-88000000D01*
X127347505Y-88001204D01*
G37*
G04 #@! TD.AperFunction*
D13*
X122682000Y-106172000D03*
X131402002Y-107061000D03*
X125452500Y-104671500D03*
X125730000Y-95377000D03*
X124333000Y-89789000D03*
X121666000Y-93091000D03*
X121666000Y-95631000D03*
X121666000Y-90551000D03*
X119253000Y-86233000D03*
X133985000Y-91821000D03*
X122428000Y-100017500D03*
X133858000Y-94361000D03*
X134112000Y-99441000D03*
X133985000Y-96901000D03*
X124402001Y-90678000D03*
X124714000Y-92075000D03*
X124714000Y-96901000D03*
X129159000Y-101346000D03*
X129032000Y-107569000D03*
X123825000Y-102846500D03*
X121793000Y-98171000D03*
X121799998Y-87930121D03*
X126873000Y-88512500D03*
X125183818Y-101384182D03*
X124968000Y-88517100D03*
X126944152Y-106084010D03*
X127531500Y-102682998D03*
X127889000Y-106299000D03*
X131669041Y-105939393D03*
X132588000Y-86233000D03*
X128016000Y-85598000D03*
X128778000Y-90170000D03*
X128778000Y-86687500D03*
X125730000Y-90043000D03*
X124968000Y-86692100D03*
X128143000Y-97282000D03*
X128270000Y-91451500D03*
X133970000Y-86819127D03*
X127041270Y-92691746D03*
X127158968Y-101058225D03*
X124206000Y-98298000D03*
D14*
X136240000Y-104530000D02*
X133341000Y-104530000D01*
X133341000Y-104530000D02*
X132842000Y-105029000D01*
X132842000Y-105029000D02*
X132842000Y-106426000D01*
X132437500Y-106830500D02*
X130810000Y-106830500D01*
X132842000Y-106426000D02*
X132437500Y-106830500D01*
X128044000Y-99568000D02*
X127531500Y-99568000D01*
X128344010Y-99868010D02*
X128044000Y-99568000D01*
X128344010Y-103801824D02*
X128344010Y-99868010D01*
X127474334Y-104671500D02*
X128344010Y-103801824D01*
X123825000Y-104671500D02*
X125452500Y-104671500D01*
X131171502Y-106830500D02*
X131402002Y-107061000D01*
X130810000Y-106830500D02*
X131171502Y-106830500D01*
X125452500Y-104671500D02*
X127474334Y-104671500D01*
X119330000Y-86310000D02*
X119253000Y-86233000D01*
X119330000Y-88000000D02*
X119330000Y-86310000D01*
X130603000Y-86687500D02*
X128778000Y-88512500D01*
X130683000Y-86687500D02*
X130603000Y-86687500D01*
X127877999Y-88712501D02*
X128078000Y-88512500D01*
X127877999Y-89740003D02*
X127877999Y-88712501D01*
X126824001Y-90794001D02*
X127877999Y-89740003D01*
X124632999Y-90283001D02*
X125143999Y-90794001D01*
X124632999Y-90088999D02*
X124632999Y-90283001D01*
X128078000Y-88512500D02*
X128778000Y-88512500D01*
X125143999Y-90794001D02*
X126824001Y-90794001D01*
X124333000Y-89789000D02*
X124632999Y-90088999D01*
X126464000Y-95631000D02*
X126976500Y-95631000D01*
X126214500Y-95880500D02*
X126464000Y-95631000D01*
X126214500Y-97663000D02*
X126214500Y-95880500D01*
X130658500Y-93471000D02*
X131064000Y-93876500D01*
X128778000Y-93471000D02*
X130658500Y-93471000D01*
X133985000Y-99568000D02*
X134112000Y-99441000D01*
X132611500Y-99568000D02*
X133985000Y-99568000D01*
X124737500Y-92051500D02*
X124714000Y-92075000D01*
X131064000Y-92051500D02*
X124737500Y-92051500D01*
X121009000Y-96901000D02*
X121000000Y-96910000D01*
X124714000Y-96901000D02*
X121009000Y-96901000D01*
X130913500Y-91901000D02*
X131064000Y-92051500D01*
X130913500Y-90297000D02*
X130913500Y-91901000D01*
X130786500Y-101346000D02*
X129159000Y-101346000D01*
X128533000Y-107070000D02*
X121000000Y-107070000D01*
X129032000Y-107569000D02*
X128533000Y-107070000D01*
X130786500Y-99568000D02*
X130786500Y-101346000D01*
X122824990Y-105044990D02*
X122310000Y-104530000D01*
X122310000Y-104530000D02*
X121000000Y-104530000D01*
X122824990Y-105161824D02*
X122824990Y-105044990D01*
X123147176Y-105484010D02*
X122824990Y-105161824D01*
X127912500Y-105005500D02*
X127433990Y-105484010D01*
X127433990Y-105484010D02*
X123147176Y-105484010D01*
X130810000Y-105005500D02*
X127912500Y-105005500D01*
X130810000Y-103274500D02*
X130786500Y-103251000D01*
X130810000Y-105005500D02*
X130810000Y-103274500D01*
X124102500Y-103124000D02*
X123825000Y-102846500D01*
X125706500Y-103124000D02*
X124102500Y-103124000D01*
X124536499Y-97697999D02*
X125706500Y-98868000D01*
X123605999Y-98009999D02*
X123917999Y-97697999D01*
X125706500Y-98868000D02*
X125706500Y-99568000D01*
X123917999Y-97697999D02*
X124536499Y-97697999D01*
X123605999Y-98586001D02*
X123605999Y-98009999D01*
X123825000Y-98805002D02*
X123605999Y-98586001D01*
X123825000Y-99417500D02*
X123825000Y-98805002D01*
X121032500Y-99417500D02*
X121000000Y-99450000D01*
X123825000Y-99417500D02*
X121032500Y-99417500D01*
X134073000Y-97663000D02*
X134570000Y-98160000D01*
X131468500Y-97663000D02*
X134073000Y-97663000D01*
X121782000Y-98160000D02*
X121793000Y-98171000D01*
X119330000Y-98160000D02*
X121782000Y-98160000D01*
X125183818Y-101110984D02*
X125183818Y-101384182D01*
X124502824Y-100429990D02*
X125183818Y-101110984D01*
X123147176Y-100429990D02*
X124502824Y-100429990D01*
X122877166Y-100700000D02*
X123147176Y-100429990D01*
X119330000Y-100700000D02*
X122877166Y-100700000D01*
X121321762Y-103240000D02*
X120407630Y-103240000D01*
X123319262Y-101242500D02*
X121321762Y-103240000D01*
X120407630Y-103240000D02*
X119330000Y-103240000D01*
X123825000Y-101242500D02*
X123319262Y-101242500D01*
X134559000Y-95631000D02*
X134570000Y-95620000D01*
X132230500Y-95631000D02*
X134559000Y-95631000D01*
X132981500Y-90540000D02*
X132738500Y-90297000D01*
X134570000Y-90540000D02*
X132981500Y-90540000D01*
X134432000Y-103378000D02*
X134570000Y-103240000D01*
X132611500Y-103378000D02*
X134432000Y-103378000D01*
X133924000Y-101346000D02*
X134570000Y-100700000D01*
X132611500Y-101346000D02*
X133924000Y-101346000D01*
X131609433Y-105999001D02*
X131669041Y-105939393D01*
X128188999Y-105999001D02*
X131609433Y-105999001D01*
X127889000Y-106299000D02*
X128188999Y-105999001D01*
X132600000Y-86245000D02*
X132588000Y-86233000D01*
X132600000Y-86687500D02*
X132600000Y-86245000D01*
X128016000Y-85598000D02*
X133985000Y-85598000D01*
X134570000Y-86183000D02*
X134570000Y-88000000D01*
X133985000Y-85598000D02*
X134570000Y-86183000D01*
X126873000Y-86687500D02*
X128778000Y-86687500D01*
X124301999Y-84971999D02*
X123540000Y-84210000D01*
X125157499Y-84971999D02*
X124301999Y-84971999D01*
X126873000Y-86687500D02*
X125157499Y-84971999D01*
X128778000Y-90171000D02*
X128778000Y-90170000D01*
X123067600Y-86692100D02*
X123063000Y-86687500D01*
X124968000Y-86692100D02*
X123067600Y-86692100D01*
X121062500Y-86687500D02*
X121000000Y-86750000D01*
X123063000Y-86687500D02*
X121062500Y-86687500D01*
X125731000Y-90044000D02*
X125730000Y-90043000D01*
X125984000Y-90044000D02*
X125731000Y-90044000D01*
X128039500Y-97385500D02*
X128143000Y-97282000D01*
X128039500Y-97663000D02*
X128039500Y-97385500D01*
X124425999Y-91474999D02*
X124070998Y-91830000D01*
X125002001Y-91474999D02*
X124425999Y-91474999D01*
X125178492Y-91651490D02*
X125002001Y-91474999D01*
X127254000Y-91651490D02*
X125178492Y-91651490D01*
X124070998Y-91830000D02*
X121000000Y-91830000D01*
X127453990Y-91451500D02*
X127254000Y-91651490D01*
X128270000Y-91451500D02*
X127453990Y-91451500D01*
X128524000Y-97663000D02*
X128143000Y-97282000D01*
X129643500Y-97663000D02*
X128524000Y-97663000D01*
X128801500Y-94931000D02*
X128612500Y-94742000D01*
X128801500Y-95631000D02*
X128801500Y-94931000D01*
X127466824Y-94630990D02*
X126476010Y-94630990D01*
X127577834Y-94742000D02*
X127466824Y-94630990D01*
X128612500Y-94742000D02*
X127577834Y-94742000D01*
X126476010Y-94630990D02*
X126460020Y-94615000D01*
X126460020Y-94615000D02*
X123063000Y-94615000D01*
X122818000Y-94370000D02*
X121000000Y-94370000D01*
X123063000Y-94615000D02*
X122818000Y-94370000D01*
X130405500Y-95631000D02*
X128801500Y-95631000D01*
X130683000Y-88512500D02*
X132600000Y-88512500D01*
X132600000Y-88189127D02*
X133970000Y-86819127D01*
X132600000Y-88512500D02*
X132600000Y-88189127D01*
X130013932Y-92691746D02*
X127041270Y-92691746D01*
X130386176Y-93063990D02*
X130013932Y-92691746D01*
X133476360Y-93063990D02*
X130386176Y-93063990D01*
X133492370Y-93080000D02*
X133476360Y-93063990D01*
X134570000Y-93080000D02*
X133492370Y-93080000D01*
X124893990Y-98985990D02*
X124206000Y-98298000D01*
X124893990Y-100245824D02*
X124893990Y-98985990D01*
X125706391Y-101058225D02*
X124893990Y-100245824D01*
X127158968Y-101058225D02*
X125706391Y-101058225D01*
D15*
G36*
X133679465Y-104325120D02*
G01*
X133908273Y-104478005D01*
X133985515Y-104510000D01*
X133908273Y-104541995D01*
X133679465Y-104694880D01*
X133484880Y-104889465D01*
X133331995Y-105118273D01*
X133226686Y-105372510D01*
X133173000Y-105642408D01*
X133173000Y-105917592D01*
X133226686Y-106187490D01*
X133331995Y-106441727D01*
X133484880Y-106670535D01*
X133679465Y-106865120D01*
X133908273Y-107018005D01*
X134162510Y-107123314D01*
X134432408Y-107177000D01*
X134707592Y-107177000D01*
X134843000Y-107150066D01*
X134843000Y-107207592D01*
X134896686Y-107477490D01*
X134924235Y-107544000D01*
X132013784Y-107544000D01*
X132021072Y-107470000D01*
X132018000Y-107243250D01*
X131859250Y-107084500D01*
X130810000Y-107084500D01*
X130810000Y-107104500D01*
X130556000Y-107104500D01*
X130556000Y-107084500D01*
X130536000Y-107084500D01*
X130536000Y-106830500D01*
X130556000Y-106830500D01*
X130556000Y-106810500D01*
X130810000Y-106810500D01*
X130810000Y-106830500D01*
X131377092Y-106830500D01*
X131396312Y-106838461D01*
X131576952Y-106874393D01*
X131761130Y-106874393D01*
X131941770Y-106838461D01*
X132111930Y-106767979D01*
X132265069Y-106665655D01*
X132395303Y-106535421D01*
X132497627Y-106382282D01*
X132568109Y-106212122D01*
X132604041Y-106031482D01*
X132604041Y-105847304D01*
X132568109Y-105666664D01*
X132497627Y-105496504D01*
X132395303Y-105343365D01*
X132265069Y-105213131D01*
X132111930Y-105110807D01*
X132021072Y-105073173D01*
X132021072Y-104869999D01*
X132004008Y-104696745D01*
X131985536Y-104635851D01*
X132009149Y-104648472D01*
X132175745Y-104699008D01*
X132348999Y-104716072D01*
X132874001Y-104716072D01*
X133047255Y-104699008D01*
X133213851Y-104648472D01*
X133367387Y-104566405D01*
X133501962Y-104455962D01*
X133612405Y-104321387D01*
X133634464Y-104280119D01*
X133679465Y-104325120D01*
G37*
X133679465Y-104325120D02*
X133908273Y-104478005D01*
X133985515Y-104510000D01*
X133908273Y-104541995D01*
X133679465Y-104694880D01*
X133484880Y-104889465D01*
X133331995Y-105118273D01*
X133226686Y-105372510D01*
X133173000Y-105642408D01*
X133173000Y-105917592D01*
X133226686Y-106187490D01*
X133331995Y-106441727D01*
X133484880Y-106670535D01*
X133679465Y-106865120D01*
X133908273Y-107018005D01*
X134162510Y-107123314D01*
X134432408Y-107177000D01*
X134707592Y-107177000D01*
X134843000Y-107150066D01*
X134843000Y-107207592D01*
X134896686Y-107477490D01*
X134924235Y-107544000D01*
X132013784Y-107544000D01*
X132021072Y-107470000D01*
X132018000Y-107243250D01*
X131859250Y-107084500D01*
X130810000Y-107084500D01*
X130810000Y-107104500D01*
X130556000Y-107104500D01*
X130556000Y-107084500D01*
X130536000Y-107084500D01*
X130536000Y-106830500D01*
X130556000Y-106830500D01*
X130556000Y-106810500D01*
X130810000Y-106810500D01*
X130810000Y-106830500D01*
X131377092Y-106830500D01*
X131396312Y-106838461D01*
X131576952Y-106874393D01*
X131761130Y-106874393D01*
X131941770Y-106838461D01*
X132111930Y-106767979D01*
X132265069Y-106665655D01*
X132395303Y-106535421D01*
X132497627Y-106382282D01*
X132568109Y-106212122D01*
X132604041Y-106031482D01*
X132604041Y-105847304D01*
X132568109Y-105666664D01*
X132497627Y-105496504D01*
X132395303Y-105343365D01*
X132265069Y-105213131D01*
X132111930Y-105110807D01*
X132021072Y-105073173D01*
X132021072Y-104869999D01*
X132004008Y-104696745D01*
X131985536Y-104635851D01*
X132009149Y-104648472D01*
X132175745Y-104699008D01*
X132348999Y-104716072D01*
X132874001Y-104716072D01*
X133047255Y-104699008D01*
X133213851Y-104648472D01*
X133367387Y-104566405D01*
X133501962Y-104455962D01*
X133612405Y-104321387D01*
X133634464Y-104280119D01*
X133679465Y-104325120D01*
G36*
X126641038Y-104201962D02*
G01*
X126775613Y-104312405D01*
X126929149Y-104394472D01*
X127095745Y-104445008D01*
X127268999Y-104462072D01*
X127416082Y-104462072D01*
X127390262Y-104483262D01*
X127367241Y-104511313D01*
X127129544Y-104749010D01*
X123678000Y-104749010D01*
X123678000Y-104544500D01*
X123698000Y-104544500D01*
X123698000Y-104524500D01*
X123952000Y-104524500D01*
X123952000Y-104544500D01*
X125001250Y-104544500D01*
X125140309Y-104405441D01*
X125270745Y-104445008D01*
X125443999Y-104462072D01*
X125969001Y-104462072D01*
X126142255Y-104445008D01*
X126308851Y-104394472D01*
X126462387Y-104312405D01*
X126596962Y-104201962D01*
X126619000Y-104175109D01*
X126641038Y-104201962D01*
G37*
X126641038Y-104201962D02*
X126775613Y-104312405D01*
X126929149Y-104394472D01*
X127095745Y-104445008D01*
X127268999Y-104462072D01*
X127416082Y-104462072D01*
X127390262Y-104483262D01*
X127367241Y-104511313D01*
X127129544Y-104749010D01*
X123678000Y-104749010D01*
X123678000Y-104544500D01*
X123698000Y-104544500D01*
X123698000Y-104524500D01*
X123952000Y-104524500D01*
X123952000Y-104544500D01*
X125001250Y-104544500D01*
X125140309Y-104405441D01*
X125270745Y-104445008D01*
X125443999Y-104462072D01*
X125969001Y-104462072D01*
X126142255Y-104445008D01*
X126308851Y-104394472D01*
X126462387Y-104312405D01*
X126596962Y-104201962D01*
X126619000Y-104175109D01*
X126641038Y-104201962D01*
G36*
X136433748Y-104515858D02*
G01*
X136419605Y-104530000D01*
X136433748Y-104544143D01*
X136254143Y-104723748D01*
X136240000Y-104709605D01*
X136225858Y-104723748D01*
X136046253Y-104544143D01*
X136060395Y-104530000D01*
X136046253Y-104515858D01*
X136225858Y-104336253D01*
X136240000Y-104350395D01*
X136254143Y-104336253D01*
X136433748Y-104515858D01*
G37*
X136433748Y-104515858D02*
X136419605Y-104530000D01*
X136433748Y-104544143D01*
X136254143Y-104723748D01*
X136240000Y-104709605D01*
X136225858Y-104723748D01*
X136046253Y-104544143D01*
X136060395Y-104530000D01*
X136046253Y-104515858D01*
X136225858Y-104336253D01*
X136240000Y-104350395D01*
X136254143Y-104336253D01*
X136433748Y-104515858D01*
G36*
X128887613Y-98851405D02*
G01*
X129041149Y-98933472D01*
X129207745Y-98984008D01*
X129380999Y-99001072D01*
X129647444Y-99001072D01*
X129635928Y-99117999D01*
X129635928Y-100018001D01*
X129652992Y-100191255D01*
X129703528Y-100357851D01*
X129785595Y-100511387D01*
X129793074Y-100520500D01*
X129785595Y-100529613D01*
X129742093Y-100611000D01*
X129741951Y-100611000D01*
X129601889Y-100517414D01*
X129431729Y-100446932D01*
X129251089Y-100411000D01*
X129066911Y-100411000D01*
X128886271Y-100446932D01*
X128716111Y-100517414D01*
X128583254Y-100606186D01*
X128633502Y-100512180D01*
X128669812Y-100392482D01*
X128682072Y-100268000D01*
X128679000Y-99853750D01*
X128520250Y-99695000D01*
X127658500Y-99695000D01*
X127658500Y-99715000D01*
X127404500Y-99715000D01*
X127404500Y-99695000D01*
X127384500Y-99695000D01*
X127384500Y-99441000D01*
X127404500Y-99441000D01*
X127404500Y-99421000D01*
X127658500Y-99421000D01*
X127658500Y-99441000D01*
X128520250Y-99441000D01*
X128679000Y-99282250D01*
X128681745Y-98912148D01*
X128795387Y-98851405D01*
X128841500Y-98813561D01*
X128887613Y-98851405D01*
G37*
X128887613Y-98851405D02*
X129041149Y-98933472D01*
X129207745Y-98984008D01*
X129380999Y-99001072D01*
X129647444Y-99001072D01*
X129635928Y-99117999D01*
X129635928Y-100018001D01*
X129652992Y-100191255D01*
X129703528Y-100357851D01*
X129785595Y-100511387D01*
X129793074Y-100520500D01*
X129785595Y-100529613D01*
X129742093Y-100611000D01*
X129741951Y-100611000D01*
X129601889Y-100517414D01*
X129431729Y-100446932D01*
X129251089Y-100411000D01*
X129066911Y-100411000D01*
X128886271Y-100446932D01*
X128716111Y-100517414D01*
X128583254Y-100606186D01*
X128633502Y-100512180D01*
X128669812Y-100392482D01*
X128682072Y-100268000D01*
X128679000Y-99853750D01*
X128520250Y-99695000D01*
X127658500Y-99695000D01*
X127658500Y-99715000D01*
X127404500Y-99715000D01*
X127404500Y-99695000D01*
X127384500Y-99695000D01*
X127384500Y-99441000D01*
X127404500Y-99441000D01*
X127404500Y-99421000D01*
X127658500Y-99421000D01*
X127658500Y-99441000D01*
X128520250Y-99441000D01*
X128679000Y-99282250D01*
X128681745Y-98912148D01*
X128795387Y-98851405D01*
X128841500Y-98813561D01*
X128887613Y-98851405D01*
G36*
X132738500Y-99441000D02*
G01*
X132758500Y-99441000D01*
X132758500Y-99695000D01*
X132738500Y-99695000D01*
X132738500Y-99715000D01*
X132484500Y-99715000D01*
X132484500Y-99695000D01*
X132464500Y-99695000D01*
X132464500Y-99441000D01*
X132484500Y-99441000D01*
X132484500Y-99421000D01*
X132738500Y-99421000D01*
X132738500Y-99441000D01*
G37*
X132738500Y-99441000D02*
X132758500Y-99441000D01*
X132758500Y-99695000D01*
X132738500Y-99695000D01*
X132738500Y-99715000D01*
X132484500Y-99715000D01*
X132484500Y-99695000D01*
X132464500Y-99695000D01*
X132464500Y-99441000D01*
X132484500Y-99441000D01*
X132484500Y-99421000D01*
X132738500Y-99421000D01*
X132738500Y-99441000D01*
G36*
X133908273Y-99398005D02*
G01*
X133985515Y-99430000D01*
X133908273Y-99461995D01*
X133759000Y-99561736D01*
X133759000Y-99440998D01*
X133600252Y-99440998D01*
X133749400Y-99291850D01*
X133908273Y-99398005D01*
G37*
X133908273Y-99398005D02*
X133985515Y-99430000D01*
X133908273Y-99461995D01*
X133759000Y-99561736D01*
X133759000Y-99440998D01*
X133600252Y-99440998D01*
X133749400Y-99291850D01*
X133908273Y-99398005D01*
G36*
X126341500Y-97536000D02*
G01*
X126361500Y-97536000D01*
X126361500Y-97790000D01*
X126341500Y-97790000D01*
X126341500Y-97810000D01*
X126087500Y-97810000D01*
X126087500Y-97790000D01*
X126067500Y-97790000D01*
X126067500Y-97536000D01*
X126087500Y-97536000D01*
X126087500Y-97516000D01*
X126341500Y-97516000D01*
X126341500Y-97536000D01*
G37*
X126341500Y-97536000D02*
X126361500Y-97536000D01*
X126361500Y-97790000D01*
X126341500Y-97790000D01*
X126341500Y-97810000D01*
X126087500Y-97810000D01*
X126087500Y-97790000D01*
X126067500Y-97790000D01*
X126067500Y-97536000D01*
X126087500Y-97536000D01*
X126087500Y-97516000D01*
X126341500Y-97516000D01*
X126341500Y-97536000D01*
G36*
X133484880Y-96510535D02*
G01*
X133679465Y-96705120D01*
X133908273Y-96858005D01*
X133985515Y-96890000D01*
X133908273Y-96921995D01*
X133899286Y-96928000D01*
X132745399Y-96928000D01*
X132832851Y-96901472D01*
X132986387Y-96819405D01*
X133120962Y-96708962D01*
X133231405Y-96574387D01*
X133313472Y-96420851D01*
X133330111Y-96366000D01*
X133388305Y-96366000D01*
X133484880Y-96510535D01*
G37*
X133484880Y-96510535D02*
X133679465Y-96705120D01*
X133908273Y-96858005D01*
X133985515Y-96890000D01*
X133908273Y-96921995D01*
X133899286Y-96928000D01*
X132745399Y-96928000D01*
X132832851Y-96901472D01*
X132986387Y-96819405D01*
X133120962Y-96708962D01*
X133231405Y-96574387D01*
X133313472Y-96420851D01*
X133330111Y-96366000D01*
X133388305Y-96366000D01*
X133484880Y-96510535D01*
G36*
X122517741Y-95109187D02*
G01*
X122540762Y-95137238D01*
X122652680Y-95229087D01*
X122780367Y-95297337D01*
X122918915Y-95339365D01*
X123026895Y-95350000D01*
X123026904Y-95350000D01*
X123062999Y-95353555D01*
X123099094Y-95350000D01*
X125833750Y-95350000D01*
X125987750Y-95504000D01*
X126849500Y-95504000D01*
X126849500Y-95484000D01*
X127103500Y-95484000D01*
X127103500Y-95504000D01*
X127123500Y-95504000D01*
X127123500Y-95758000D01*
X127103500Y-95758000D01*
X127103500Y-95778000D01*
X126849500Y-95778000D01*
X126849500Y-95758000D01*
X125987750Y-95758000D01*
X125829000Y-95916750D01*
X125825961Y-96326607D01*
X125702000Y-96324928D01*
X125577518Y-96337188D01*
X125481292Y-96366378D01*
X125440262Y-96304972D01*
X125310028Y-96174738D01*
X125156889Y-96072414D01*
X124986729Y-96001932D01*
X124806089Y-95966000D01*
X124621911Y-95966000D01*
X124441271Y-96001932D01*
X124271111Y-96072414D01*
X124131049Y-96166000D01*
X122183032Y-96166000D01*
X122085120Y-96019465D01*
X121890535Y-95824880D01*
X121661727Y-95671995D01*
X121584485Y-95640000D01*
X121661727Y-95608005D01*
X121890535Y-95455120D01*
X122085120Y-95260535D01*
X122189045Y-95105000D01*
X122513554Y-95105000D01*
X122517741Y-95109187D01*
G37*
X122517741Y-95109187D02*
X122540762Y-95137238D01*
X122652680Y-95229087D01*
X122780367Y-95297337D01*
X122918915Y-95339365D01*
X123026895Y-95350000D01*
X123026904Y-95350000D01*
X123062999Y-95353555D01*
X123099094Y-95350000D01*
X125833750Y-95350000D01*
X125987750Y-95504000D01*
X126849500Y-95504000D01*
X126849500Y-95484000D01*
X127103500Y-95484000D01*
X127103500Y-95504000D01*
X127123500Y-95504000D01*
X127123500Y-95758000D01*
X127103500Y-95758000D01*
X127103500Y-95778000D01*
X126849500Y-95778000D01*
X126849500Y-95758000D01*
X125987750Y-95758000D01*
X125829000Y-95916750D01*
X125825961Y-96326607D01*
X125702000Y-96324928D01*
X125577518Y-96337188D01*
X125481292Y-96366378D01*
X125440262Y-96304972D01*
X125310028Y-96174738D01*
X125156889Y-96072414D01*
X124986729Y-96001932D01*
X124806089Y-95966000D01*
X124621911Y-95966000D01*
X124441271Y-96001932D01*
X124271111Y-96072414D01*
X124131049Y-96166000D01*
X122183032Y-96166000D01*
X122085120Y-96019465D01*
X121890535Y-95824880D01*
X121661727Y-95671995D01*
X121584485Y-95640000D01*
X121661727Y-95608005D01*
X121890535Y-95455120D01*
X122085120Y-95260535D01*
X122189045Y-95105000D01*
X122513554Y-95105000D01*
X122517741Y-95109187D01*
G36*
X133348285Y-93804365D02*
G01*
X133375649Y-93807060D01*
X133484880Y-93970535D01*
X133679465Y-94165120D01*
X133908273Y-94318005D01*
X133985515Y-94350000D01*
X133908273Y-94381995D01*
X133679465Y-94534880D01*
X133484880Y-94729465D01*
X133373605Y-94896000D01*
X133330111Y-94896000D01*
X133313472Y-94841149D01*
X133231405Y-94687613D01*
X133120962Y-94553038D01*
X132986387Y-94442595D01*
X132832851Y-94360528D01*
X132666255Y-94309992D01*
X132493001Y-94292928D01*
X132400770Y-94292928D01*
X132399000Y-94162250D01*
X132240250Y-94003500D01*
X131191000Y-94003500D01*
X131191000Y-94023500D01*
X130937000Y-94023500D01*
X130937000Y-94003500D01*
X130917000Y-94003500D01*
X130917000Y-93798990D01*
X133330566Y-93798990D01*
X133348285Y-93804365D01*
G37*
X133348285Y-93804365D02*
X133375649Y-93807060D01*
X133484880Y-93970535D01*
X133679465Y-94165120D01*
X133908273Y-94318005D01*
X133985515Y-94350000D01*
X133908273Y-94381995D01*
X133679465Y-94534880D01*
X133484880Y-94729465D01*
X133373605Y-94896000D01*
X133330111Y-94896000D01*
X133313472Y-94841149D01*
X133231405Y-94687613D01*
X133120962Y-94553038D01*
X132986387Y-94442595D01*
X132832851Y-94360528D01*
X132666255Y-94309992D01*
X132493001Y-94292928D01*
X132400770Y-94292928D01*
X132399000Y-94162250D01*
X132240250Y-94003500D01*
X131191000Y-94003500D01*
X131191000Y-94023500D01*
X130937000Y-94023500D01*
X130937000Y-94003500D01*
X130917000Y-94003500D01*
X130917000Y-93798990D01*
X133330566Y-93798990D01*
X133348285Y-93804365D01*
G36*
X123987738Y-92671028D02*
G01*
X124117972Y-92801262D01*
X124271111Y-92903586D01*
X124441271Y-92974068D01*
X124621911Y-93010000D01*
X124748098Y-93010000D01*
X124749000Y-93058250D01*
X124907750Y-93217000D01*
X125857000Y-93217000D01*
X125857000Y-93197000D01*
X126111000Y-93197000D01*
X126111000Y-93217000D01*
X126131000Y-93217000D01*
X126131000Y-93471000D01*
X126111000Y-93471000D01*
X126111000Y-93491000D01*
X125857000Y-93491000D01*
X125857000Y-93471000D01*
X124907750Y-93471000D01*
X124749000Y-93629750D01*
X124745928Y-93794000D01*
X124754398Y-93880000D01*
X123367446Y-93880000D01*
X123363259Y-93875813D01*
X123340238Y-93847762D01*
X123228320Y-93755913D01*
X123100633Y-93687663D01*
X122962085Y-93645635D01*
X122854105Y-93635000D01*
X122818000Y-93631444D01*
X122781895Y-93635000D01*
X122189045Y-93635000D01*
X122085120Y-93479465D01*
X121890535Y-93284880D01*
X121661727Y-93131995D01*
X121584485Y-93100000D01*
X121661727Y-93068005D01*
X121890535Y-92915120D01*
X122085120Y-92720535D01*
X122189045Y-92565000D01*
X123916892Y-92565000D01*
X123987738Y-92671028D01*
G37*
X123987738Y-92671028D02*
X124117972Y-92801262D01*
X124271111Y-92903586D01*
X124441271Y-92974068D01*
X124621911Y-93010000D01*
X124748098Y-93010000D01*
X124749000Y-93058250D01*
X124907750Y-93217000D01*
X125857000Y-93217000D01*
X125857000Y-93197000D01*
X126111000Y-93197000D01*
X126111000Y-93217000D01*
X126131000Y-93217000D01*
X126131000Y-93471000D01*
X126111000Y-93471000D01*
X126111000Y-93491000D01*
X125857000Y-93491000D01*
X125857000Y-93471000D01*
X124907750Y-93471000D01*
X124749000Y-93629750D01*
X124745928Y-93794000D01*
X124754398Y-93880000D01*
X123367446Y-93880000D01*
X123363259Y-93875813D01*
X123340238Y-93847762D01*
X123228320Y-93755913D01*
X123100633Y-93687663D01*
X122962085Y-93645635D01*
X122854105Y-93635000D01*
X122818000Y-93631444D01*
X122781895Y-93635000D01*
X122189045Y-93635000D01*
X122085120Y-93479465D01*
X121890535Y-93284880D01*
X121661727Y-93131995D01*
X121584485Y-93100000D01*
X121661727Y-93068005D01*
X121890535Y-92915120D01*
X122085120Y-92720535D01*
X122189045Y-92565000D01*
X123916892Y-92565000D01*
X123987738Y-92671028D01*
G36*
X128925000Y-93598000D02*
G01*
X128905000Y-93598000D01*
X128905000Y-93618000D01*
X128651000Y-93618000D01*
X128651000Y-93598000D01*
X128631000Y-93598000D01*
X128631000Y-93426746D01*
X128925000Y-93426746D01*
X128925000Y-93598000D01*
G37*
X128925000Y-93598000D02*
X128905000Y-93598000D01*
X128905000Y-93618000D01*
X128651000Y-93618000D01*
X128651000Y-93598000D01*
X128631000Y-93598000D01*
X128631000Y-93426746D01*
X128925000Y-93426746D01*
X128925000Y-93598000D01*
G36*
X133679465Y-91625120D02*
G01*
X133908273Y-91778005D01*
X133985515Y-91810000D01*
X133908273Y-91841995D01*
X133679465Y-91994880D01*
X133484880Y-92189465D01*
X133391652Y-92328990D01*
X132400596Y-92328990D01*
X132402072Y-92314001D01*
X132402072Y-91788999D01*
X132386039Y-91626212D01*
X132475999Y-91635072D01*
X133001001Y-91635072D01*
X133174255Y-91618008D01*
X133340851Y-91567472D01*
X133494387Y-91485405D01*
X133519302Y-91464957D01*
X133679465Y-91625120D01*
G37*
X133679465Y-91625120D02*
X133908273Y-91778005D01*
X133985515Y-91810000D01*
X133908273Y-91841995D01*
X133679465Y-91994880D01*
X133484880Y-92189465D01*
X133391652Y-92328990D01*
X132400596Y-92328990D01*
X132402072Y-92314001D01*
X132402072Y-91788999D01*
X132386039Y-91626212D01*
X132475999Y-91635072D01*
X133001001Y-91635072D01*
X133174255Y-91618008D01*
X133340851Y-91567472D01*
X133494387Y-91485405D01*
X133519302Y-91464957D01*
X133679465Y-91625120D01*
G36*
X123190000Y-88385500D02*
G01*
X123210000Y-88385500D01*
X123210000Y-88639500D01*
X123190000Y-88639500D01*
X123190000Y-89501250D01*
X123348750Y-89660000D01*
X123763000Y-89663072D01*
X123887482Y-89650812D01*
X124007180Y-89614502D01*
X124106162Y-89561594D01*
X124178149Y-89600072D01*
X124344745Y-89650608D01*
X124517999Y-89667672D01*
X124745928Y-89667672D01*
X124745928Y-90494000D01*
X124758188Y-90618482D01*
X124794498Y-90738180D01*
X124795470Y-90739999D01*
X124462093Y-90739999D01*
X124425998Y-90736444D01*
X124389903Y-90739999D01*
X124389894Y-90739999D01*
X124281914Y-90750634D01*
X124143366Y-90792662D01*
X124015679Y-90860912D01*
X123903761Y-90952761D01*
X123880740Y-90980812D01*
X123766552Y-91095000D01*
X122189045Y-91095000D01*
X122085120Y-90939465D01*
X121890535Y-90744880D01*
X121661727Y-90591995D01*
X121584485Y-90560000D01*
X121661727Y-90528005D01*
X121890535Y-90375120D01*
X122085120Y-90180535D01*
X122238005Y-89951727D01*
X122343314Y-89697490D01*
X122350407Y-89661832D01*
X122363000Y-89663072D01*
X122777250Y-89660000D01*
X122936000Y-89501250D01*
X122936000Y-88639500D01*
X122916000Y-88639500D01*
X122916000Y-88385500D01*
X122936000Y-88385500D01*
X122936000Y-88365500D01*
X123190000Y-88365500D01*
X123190000Y-88385500D01*
G37*
X123190000Y-88385500D02*
X123210000Y-88385500D01*
X123210000Y-88639500D01*
X123190000Y-88639500D01*
X123190000Y-89501250D01*
X123348750Y-89660000D01*
X123763000Y-89663072D01*
X123887482Y-89650812D01*
X124007180Y-89614502D01*
X124106162Y-89561594D01*
X124178149Y-89600072D01*
X124344745Y-89650608D01*
X124517999Y-89667672D01*
X124745928Y-89667672D01*
X124745928Y-90494000D01*
X124758188Y-90618482D01*
X124794498Y-90738180D01*
X124795470Y-90739999D01*
X124462093Y-90739999D01*
X124425998Y-90736444D01*
X124389903Y-90739999D01*
X124389894Y-90739999D01*
X124281914Y-90750634D01*
X124143366Y-90792662D01*
X124015679Y-90860912D01*
X123903761Y-90952761D01*
X123880740Y-90980812D01*
X123766552Y-91095000D01*
X122189045Y-91095000D01*
X122085120Y-90939465D01*
X121890535Y-90744880D01*
X121661727Y-90591995D01*
X121584485Y-90560000D01*
X121661727Y-90528005D01*
X121890535Y-90375120D01*
X122085120Y-90180535D01*
X122238005Y-89951727D01*
X122343314Y-89697490D01*
X122350407Y-89661832D01*
X122363000Y-89663072D01*
X122777250Y-89660000D01*
X122936000Y-89501250D01*
X122936000Y-88639500D01*
X122916000Y-88639500D01*
X122916000Y-88385500D01*
X122936000Y-88385500D01*
X122936000Y-88365500D01*
X123190000Y-88365500D01*
X123190000Y-88385500D01*
G36*
X128905000Y-88385500D02*
G01*
X128925000Y-88385500D01*
X128925000Y-88639500D01*
X128905000Y-88639500D01*
X128905000Y-88659500D01*
X128651000Y-88659500D01*
X128651000Y-88639500D01*
X128631000Y-88639500D01*
X128631000Y-88385500D01*
X128651000Y-88385500D01*
X128651000Y-88365500D01*
X128905000Y-88365500D01*
X128905000Y-88385500D01*
G37*
X128905000Y-88385500D02*
X128925000Y-88385500D01*
X128925000Y-88639500D01*
X128905000Y-88639500D01*
X128905000Y-88659500D01*
X128651000Y-88659500D01*
X128651000Y-88639500D01*
X128631000Y-88639500D01*
X128631000Y-88385500D01*
X128651000Y-88385500D01*
X128651000Y-88365500D01*
X128905000Y-88365500D01*
X128905000Y-88385500D01*
G36*
X119523748Y-87985858D02*
G01*
X119509605Y-88000000D01*
X119523748Y-88014143D01*
X119344143Y-88193748D01*
X119330000Y-88179605D01*
X119315858Y-88193748D01*
X119136253Y-88014143D01*
X119150395Y-88000000D01*
X119136253Y-87985858D01*
X119315858Y-87806253D01*
X119330000Y-87820395D01*
X119344143Y-87806253D01*
X119523748Y-87985858D01*
G37*
X119523748Y-87985858D02*
X119509605Y-88000000D01*
X119523748Y-88014143D01*
X119344143Y-88193748D01*
X119330000Y-88179605D01*
X119315858Y-88193748D01*
X119136253Y-88014143D01*
X119150395Y-88000000D01*
X119136253Y-87985858D01*
X119315858Y-87806253D01*
X119330000Y-87820395D01*
X119344143Y-87806253D01*
X119523748Y-87985858D01*
G36*
X130810000Y-86560500D02*
G01*
X130830000Y-86560500D01*
X130830000Y-86814500D01*
X130810000Y-86814500D01*
X130810000Y-86834500D01*
X130556000Y-86834500D01*
X130556000Y-86814500D01*
X130536000Y-86814500D01*
X130536000Y-86560500D01*
X130556000Y-86560500D01*
X130556000Y-86540500D01*
X130810000Y-86540500D01*
X130810000Y-86560500D01*
G37*
X130810000Y-86560500D02*
X130830000Y-86560500D01*
X130830000Y-86814500D01*
X130810000Y-86814500D01*
X130810000Y-86834500D01*
X130556000Y-86834500D01*
X130556000Y-86814500D01*
X130536000Y-86814500D01*
X130536000Y-86560500D01*
X130556000Y-86560500D01*
X130556000Y-86540500D01*
X130810000Y-86540500D01*
X130810000Y-86560500D01*
G36*
X122301995Y-83548273D02*
G01*
X122196686Y-83802510D01*
X122143000Y-84072408D01*
X122143000Y-84347592D01*
X122196686Y-84617490D01*
X122301995Y-84871727D01*
X122454880Y-85100535D01*
X122649465Y-85295120D01*
X122878273Y-85448005D01*
X123092951Y-85536928D01*
X122612999Y-85536928D01*
X122439745Y-85553992D01*
X122273149Y-85604528D01*
X122119613Y-85686595D01*
X122005720Y-85780065D01*
X121890535Y-85664880D01*
X121661727Y-85511995D01*
X121407490Y-85406686D01*
X121137592Y-85353000D01*
X120862408Y-85353000D01*
X120592510Y-85406686D01*
X120338273Y-85511995D01*
X120109465Y-85664880D01*
X119914880Y-85859465D01*
X119761995Y-86088273D01*
X119656686Y-86342510D01*
X119603000Y-86612408D01*
X119603000Y-86628378D01*
X119532865Y-86610977D01*
X119257983Y-86598090D01*
X119024000Y-86633334D01*
X119024000Y-83464000D01*
X122358305Y-83464000D01*
X122301995Y-83548273D01*
G37*
X122301995Y-83548273D02*
X122196686Y-83802510D01*
X122143000Y-84072408D01*
X122143000Y-84347592D01*
X122196686Y-84617490D01*
X122301995Y-84871727D01*
X122454880Y-85100535D01*
X122649465Y-85295120D01*
X122878273Y-85448005D01*
X123092951Y-85536928D01*
X122612999Y-85536928D01*
X122439745Y-85553992D01*
X122273149Y-85604528D01*
X122119613Y-85686595D01*
X122005720Y-85780065D01*
X121890535Y-85664880D01*
X121661727Y-85511995D01*
X121407490Y-85406686D01*
X121137592Y-85353000D01*
X120862408Y-85353000D01*
X120592510Y-85406686D01*
X120338273Y-85511995D01*
X120109465Y-85664880D01*
X119914880Y-85859465D01*
X119761995Y-86088273D01*
X119656686Y-86342510D01*
X119603000Y-86612408D01*
X119603000Y-86628378D01*
X119532865Y-86610977D01*
X119257983Y-86598090D01*
X119024000Y-86633334D01*
X119024000Y-83464000D01*
X122358305Y-83464000D01*
X122301995Y-83548273D01*
M02*
